<svg width="101" height="101" viewBox="0 0 101 101" fill="none" xmlns="http://www.w3.org/2000/svg">
<path d="M22.726 7.17572C24.5411 3.49708 28.4881 1.33294 32.5639 1.78563L45.5207 3.21904C47.268 3.41269 47.8453 5.66584 46.4062 6.67728L43.8678 8.45965C42.8045 9.20546 41.4967 9.53071 40.2086 9.36879L22.7263 7.17766L22.726 7.17572Z" fill="white"/>
<path d="M61.6592 35.5146C64.0273 33.9101 66.316 33.2639 68.304 34.0692C71.0687 35.189 73.4494 37.1532 75.1328 39.6665L91.1794 63.6549C92.3675 65.4312 92.6371 67.6839 91.9022 69.6914C91.4037 71.0528 89.5883 71.2999 88.7423 70.1222L72.5096 47.4871C69.8705 43.8063 65.8863 41.276 61.4328 40.4542L61.092 40.3911C59.2295 40.0477 58.6923 37.6358 60.2332 36.534L61.6573 35.5149L61.6592 35.5146Z" fill="url(#paint0_linear_116_11775)"/>
<path d="M12.5335 27.8497C13.4906 25.9088 15.6189 24.8199 17.7537 25.1788L43.5764 29.5198C44.8525 29.7351 46.1718 29.4478 47.2444 28.7245L60.733 19.6141C61.8092 18.8883 63.1237 18.5819 64.4102 18.7599L67.897 19.2436C73.7015 20.0475 78.8541 23.4777 81.8364 28.5212L84.8243 33.5757C85.4398 34.6165 86.6508 35.1589 87.8351 34.9252L94.1006 33.6944C95.2735 33.4644 96.4653 34.0375 97.0181 35.0974L98.5737 38.0781C100.406 41.5896 100.676 45.7358 99.3138 49.457L94.6046 41.0374C94.0152 39.9848 92.8165 39.4187 91.6297 39.6349L84.6295 40.9042C83.431 41.1221 82.2131 40.5867 81.5635 39.5568L77.9041 33.7555C75.5129 29.9649 71.5701 27.3789 67.139 26.6966L63.6503 26.1596L47.8963 36.5339C46.8159 37.2445 45.4937 37.5123 44.2209 37.2787L14.5146 31.7939C12.7109 31.4597 11.726 29.4987 12.5379 27.853L12.5335 27.8497Z" fill="url(#paint1_linear_116_11775)"/>
<path d="M91.5818 24.6764C92.8362 27.0801 91.5595 30.5049 89.0028 29.5986C88.3746 29.3754 87.829 28.9317 87.4897 28.3246L83.1036 20.4827C80.9387 16.6112 77.0332 13.982 72.6313 13.4304L62.6933 12.1862C61.4033 12.0246 60.089 12.3329 59.0062 13.0538L45.5676 21.9921C44.4884 22.7105 43.1696 23.0016 41.8881 22.803L20.4128 19.494C18.6786 19.227 17.7071 17.3573 18.4821 15.7846C19.413 13.8952 21.4625 12.8099 23.5473 13.0988L40.4706 15.4436C41.7571 15.6216 43.0697 15.3155 44.1453 14.5857L57.0649 5.81704C58.1422 5.08506 59.4522 4.76147 60.7455 4.90477L73.2825 6.29073C79.0427 6.92845 84.1423 10.4161 86.8208 15.5538L91.5798 24.6767L91.5818 24.6764Z" fill="url(#paint2_linear_116_11775)"/>
<path d="M89.1839 44.6957C90.3704 44.4637 91.5798 45.0083 92.1953 46.0491L95.677 51.9381C96.7393 53.7368 96.9407 55.9302 96.2228 57.8914C95.7584 59.1605 94.0426 59.3433 93.3209 58.201L85.2808 45.4581L89.1822 44.6979L89.1839 44.6957Z" fill="white"/>
<path d="M1.51918 50.1871L1.7577 49.7035L12.9995 52.3239C14.2204 52.6088 15.2177 53.5062 15.6282 54.6922L16.3945 56.9077C17.1033 58.9609 15.2506 60.9799 13.1463 60.4497L5.35758 58.4887C1.72399 57.574 -0.138041 53.5488 1.51918 50.1871Z" fill="white"/>
<path d="M6.38542 40.3164C7.36869 38.324 9.58004 37.2328 11.7579 37.6688L24.108 40.1322C25.3347 40.3765 26.3525 41.251 26.7774 42.427L31.2741 54.8415C31.7019 56.023 32.7063 56.9153 33.9311 57.1997L52.3064 61.4825C57.0354 62.5854 61.322 65.1466 64.5329 68.7889L66.9987 71.5881C67.8541 72.5599 68.305 73.8313 68.2508 75.1234L67.9017 83.4809L61.143 76.4165C57.9533 73.0807 53.8708 70.7058 49.3941 69.5777L27.5161 64.0693C26.298 63.7621 25.3126 62.8511 24.9131 61.6595L20.6393 48.9384C20.2406 47.7526 19.242 46.8594 18.0201 46.5944L8.40253 44.5053C6.52665 44.0984 5.53324 42.0394 6.38154 40.3169L6.38542 40.3164Z" fill="url(#paint3_linear_116_11775)"/>
<path d="M86.5268 75.7607C87.8519 77.497 88.2028 79.8033 87.4525 81.8547C86.9087 83.3399 84.8704 83.7586 84.0576 82.4015C83.5342 81.5277 83.2607 80.518 83.2762 79.4896L83.3176 76.7069C83.3434 75.0458 85.4522 74.3507 86.4601 75.6712L86.5265 75.7587L86.5268 75.7607Z" fill="white"/>
<path d="M66.9344 61.6997C64.0277 58.1694 59.996 55.7076 55.5266 54.7372L38.7129 51.0863C37.4888 50.8197 36.4832 49.9335 36.0674 48.7521L35.3833 46.8124C34.6415 44.7104 36.4708 42.5997 38.6586 43.0362L57.5234 46.8004C62.7498 47.8441 67.4433 50.7702 70.678 55.0065L77.9368 64.514C78.7283 65.5508 79.1435 66.8354 79.1052 68.141L78.6844 82.761C78.6467 84.0567 79.105 85.325 79.9624 86.2965L84.1049 90.9967C82.9566 94.1347 78.9142 94.9751 76.611 92.553L73.6274 89.4171C72.7377 88.4821 72.2568 87.223 72.2974 85.9329L72.7709 70.8884C72.812 69.5883 72.3763 68.3126 71.5499 67.3087L66.9347 61.7016L66.9344 61.6997Z" fill="url(#paint4_linear_116_11775)"/>
<path d="M48.5905 83.4303C47.5153 82.6377 46.3032 82.0478 45.016 81.6892L36.9921 79.4512L38.3146 78.3219C39.2721 77.5044 40.585 77.2141 41.7977 77.5518L45.2952 78.5262C46.5824 78.8847 47.7976 79.4682 48.8843 80.2452L58.4968 87.1322C59.5838 87.9112 60.7973 88.4969 62.0837 88.8635L65.6199 89.8719L70.5752 91.2849L75.1134 95.7065L61.1393 91.7274C59.8551 91.3625 58.6427 90.7706 57.5642 89.9825L48.5905 83.4303Z" fill="white"/>
<path d="M54.1487 80.9935L62.3647 83.2827L67.0858 87.8819L62.7097 86.6557C61.4261 86.2946 60.2198 85.69 59.1648 84.8726L54.1484 80.9916L54.1487 80.9935Z" fill="white"/>
<path d="M53.2945 89.4925L33.6133 83.8874C28.9981 82.5732 24.6835 80.3475 20.9359 77.3478L20.5062 77.0041L43.3667 83.5252C44.6531 83.8918 45.8762 84.4622 46.9832 85.2144L53.2948 89.4944L53.2945 89.4925Z" fill="white"/>
<path d="M14.2473 69.869L29.44 74.1036C30.6507 74.4417 31.9572 74.1345 32.8919 73.2964L35.0957 71.3171C36.032 70.4769 37.337 70.16 38.5547 70.4771L47.3236 72.7605C51.8474 73.9392 55.9574 76.3934 59.1419 79.8153L40.2971 74.6747C39.0795 74.3437 37.7663 74.632 36.7998 75.443L34.8213 77.1053C33.8549 77.9163 32.5431 78.2004 31.3278 77.8591L19.924 74.6632C18.6551 74.3079 17.5133 73.5886 16.6453 72.5988L14.2487 69.8648L14.2473 69.869Z" fill="white"/>
<path d="M7.74037 62.4516L32.6771 68.9472L31.157 70.3933C30.2497 71.2551 28.9503 71.5831 27.7429 71.2545L13.5484 67.3832C12.279 67.0379 11.1336 66.3211 10.2659 65.3333L7.73843 62.4518L7.74037 62.4516Z" fill="white"/>
<defs>
<linearGradient id="paint0_linear_116_11775" x1="58.7593" y1="38.4432" x2="82.459" y2="52.663" gradientUnits="userSpaceOnUse">
<stop stop-color="#DEE9E8"/>
<stop offset="0.602104" stop-color="#C8D3D2"/>
</linearGradient>
<linearGradient id="paint1_linear_116_11775" x1="56.5719" y1="24.9528" x2="85.7407" y2="31.1511" gradientUnits="userSpaceOnUse">
<stop stop-color="#DAE6E4"/>
<stop offset="1" stop-color="#D6E1E0"/>
</linearGradient>
<linearGradient id="paint2_linear_116_11775" x1="55.1133" y1="12.5556" x2="95.9496" y2="31.8799" gradientUnits="userSpaceOnUse">
<stop stop-color="#D8DFDE"/>
<stop offset="1" stop-color="#D0DCDA"/>
</linearGradient>
<linearGradient id="paint3_linear_116_11775" x1="49.6441" y1="67.9762" x2="65.687" y2="76.7269" gradientUnits="userSpaceOnUse">
<stop stop-color="#EBEBEB"/>
<stop offset="1" stop-color="#D8E7E5"/>
</linearGradient>
<linearGradient id="paint4_linear_116_11775" x1="49.6444" y1="48.2878" x2="74.8025" y2="68.7059" gradientUnits="userSpaceOnUse">
<stop stop-color="#EBEBEB"/>
<stop offset="1" stop-color="#DEE6E5"/>
</linearGradient>
</defs>
</svg>
