<svg width="101" height="101" viewBox="0 0 101 101" fill="none" xmlns="http://www.w3.org/2000/svg">
<path d="M22.3042 7.17572C24.1192 3.49708 28.0663 1.33294 32.142 1.78563L45.0988 3.21904C46.8461 3.41269 47.4235 5.66584 45.9844 6.67728L43.4459 8.45965C42.3826 9.20546 41.0748 9.53071 39.7867 9.36879L22.3044 7.17766L22.3042 7.17572Z" fill="#26EFD7"/>
<path d="M61.2373 35.5146C63.6054 33.9101 65.8941 33.2639 67.8821 34.0692C70.6468 35.189 73.0275 37.1532 74.7109 39.6665L90.7575 63.6549C91.9456 65.4312 92.2153 67.6839 91.4803 69.6914C90.9818 71.0528 89.1664 71.2999 88.3204 70.1222L72.0877 47.4871C69.4487 43.8063 65.4644 41.276 61.0109 40.4542L60.6702 40.3911C58.8076 40.0477 58.2704 37.6358 59.8113 36.534L61.2354 35.5149L61.2373 35.5146Z" fill="url(#paint0_linear_116_11759)"/>
<path d="M12.1116 27.8497C13.0687 25.9088 15.197 24.8199 17.3318 25.1788L43.1545 29.5198C44.4306 29.7351 45.7499 29.4478 46.8225 28.7245L60.3111 19.6141C61.3873 18.8883 62.7018 18.5819 63.9883 18.7599L67.4752 19.2436C73.2797 20.0475 78.4323 23.4777 81.4146 28.5212L84.4024 33.5757C85.0179 34.6165 86.2289 35.1589 87.4132 34.9252L93.6787 33.6944C94.8517 33.4644 96.0434 34.0375 96.5962 35.0974L98.1518 38.0781C99.984 41.5896 100.254 45.7358 98.8919 49.457L94.1827 41.0374C93.5933 39.9848 92.3947 39.4187 91.2078 39.6349L84.2077 40.9042C83.0092 41.1221 81.7912 40.5867 81.1416 39.5568L77.4822 33.7555C75.091 29.9649 71.1482 27.3789 66.7172 26.6966L63.2284 26.1596L47.4744 36.5339C46.394 37.2445 45.0719 37.5123 43.799 37.2787L14.0927 31.7939C12.289 31.4597 11.3041 29.4987 12.116 27.853L12.1116 27.8497Z" fill="url(#paint1_linear_116_11759)"/>
<path d="M91.1599 24.6764C92.4144 27.0801 91.1376 30.5049 88.581 29.5986C87.9527 29.3754 87.4072 28.9317 87.0678 28.3246L82.6817 20.4827C80.5168 16.6112 76.6113 13.982 72.2094 13.4304L62.2714 12.1862C60.9814 12.0246 59.6672 12.3329 58.5843 13.0538L45.1458 21.9921C44.0665 22.7105 42.7478 23.0016 41.4662 22.803L19.991 19.494C18.2567 19.227 17.2852 17.3573 18.0602 15.7846C18.9912 13.8952 21.0406 12.8099 23.1254 13.0988L40.0488 15.4436C41.3352 15.6216 42.6478 15.3155 43.7234 14.5857L56.6431 5.81704C57.7203 5.08506 59.0303 4.76147 60.3236 4.90477L72.8606 6.29073C78.6208 6.92845 83.7204 10.4161 86.399 15.5538L91.158 24.6767L91.1599 24.6764Z" fill="url(#paint2_linear_116_11759)"/>
<path d="M88.762 44.6957C89.9485 44.4637 91.1579 45.0083 91.7734 46.0491L95.2551 51.9381C96.3174 53.7368 96.5188 55.9302 95.8009 57.8914C95.3365 59.1605 93.6208 59.3433 92.8991 58.201L84.8589 45.4581L88.7604 44.6979L88.762 44.6957Z" fill="#1ABFAB"/>
<path d="M1.09731 50.1871L1.33583 49.7035L12.5777 52.3239C13.7985 52.6088 14.7958 53.5062 15.2063 54.6922L15.9727 56.9077C16.6814 58.9609 14.8288 60.9799 12.7244 60.4497L4.93571 58.4887C1.30212 57.574 -0.559916 53.5488 1.09731 50.1871Z" fill="#26EFD7"/>
<path d="M5.96355 40.3164C6.94682 38.324 9.15816 37.2328 11.336 37.6688L23.6861 40.1322C24.9129 40.3765 25.9306 41.251 26.3556 42.427L30.8522 54.8415C31.28 56.023 32.2845 56.9153 33.5092 57.1997L51.8845 61.4825C56.6136 62.5854 60.9001 65.1466 64.111 68.7889L66.5768 71.5881C67.4322 72.5599 67.8831 73.8313 67.8289 75.1234L67.4798 83.4809L60.7211 76.4165C57.5314 73.0807 53.4489 70.7058 48.9722 69.5777L27.0942 64.0693C25.8761 63.7621 24.8907 62.8511 24.4912 61.6595L20.2174 48.9384C19.8188 47.7526 18.8201 46.8594 17.5983 46.5944L7.98065 44.5053C6.10478 44.0984 5.11136 42.0394 5.95966 40.3169L5.96355 40.3164Z" fill="url(#paint3_linear_116_11759)"/>
<path d="M86.1049 75.7607C87.43 77.497 87.781 79.8033 87.0306 81.8547C86.4869 83.3399 84.4486 83.7586 83.6357 82.4015C83.1123 81.5277 82.8388 80.518 82.8543 79.4896L82.8958 76.7069C82.9215 75.0458 85.0303 74.3507 86.0382 75.6712L86.1046 75.7587L86.1049 75.7607Z" fill="#1ABFAB"/>
<path d="M66.5125 61.6997C63.6059 58.1694 59.5741 55.7076 55.1047 54.7372L38.291 51.0863C37.0669 50.8197 36.0613 49.9335 35.6455 48.7521L34.9614 46.8124C34.2197 44.7104 36.0489 42.5997 38.2368 43.0362L57.1015 46.8004C62.328 47.8441 67.0214 50.7702 70.2562 55.0065L77.5149 64.514C78.3065 65.5508 78.7216 66.8354 78.6833 68.141L78.2625 82.761C78.2248 84.0567 78.6832 85.325 79.5405 86.2965L83.683 90.9967C82.5347 94.1347 78.4923 94.9751 76.1892 92.553L73.2055 89.4171C72.3158 88.4821 71.835 87.223 71.8755 85.9329L72.349 70.8884C72.3901 69.5883 71.9544 68.3126 71.1281 67.3087L66.5128 61.7016L66.5125 61.6997Z" fill="url(#paint4_linear_116_11759)"/>
<path d="M48.1686 83.4303C47.0934 82.6377 45.8813 82.0478 44.5941 81.6892L36.5702 79.4512L37.8927 78.3219C38.8502 77.5044 40.1631 77.2141 41.3759 77.5518L44.8733 78.5262C46.1606 78.8847 47.3757 79.4682 48.4624 80.2452L58.0749 87.1322C59.162 87.9112 60.3754 88.4969 61.6618 88.8635L65.1981 89.8719L70.1533 91.2849L74.6915 95.7065L60.7174 91.7274C59.4332 91.3625 58.2208 90.7706 57.1423 89.9825L48.1686 83.4303Z" fill="#1ABFAB"/>
<path d="M53.7268 80.9935L61.9428 83.2827L66.6639 87.8819L62.2879 86.6557C61.0042 86.2946 59.7979 85.69 58.7429 84.8726L53.7265 80.9916L53.7268 80.9935Z" fill="#1ABFAB"/>
<path d="M52.8726 89.4925L33.1914 83.8874C28.5762 82.5732 24.2616 80.3475 20.514 77.3478L20.0844 77.0041L42.9448 83.5252C44.2312 83.8918 45.4544 84.4622 46.5613 85.2144L52.8729 89.4944L52.8726 89.4925Z" fill="#1ABFAB"/>
<path d="M13.8255 69.869L29.0181 74.1036C30.2289 74.4417 31.5353 74.1345 32.47 73.2964L34.6738 71.3171C35.6101 70.4769 36.9151 70.16 38.1328 70.4771L46.9017 72.7605C51.4256 73.9392 55.5356 76.3934 58.7201 79.8153L39.8753 74.6747C38.6576 74.3437 37.3444 74.632 36.378 75.443L34.3994 77.1053C33.433 77.9163 32.1212 78.2004 30.906 77.8591L19.5021 74.6632C18.2332 74.3079 17.0914 73.5886 16.2234 72.5988L13.8268 69.8648L13.8255 69.869Z" fill="#1ABFAB"/>
<path d="M7.31849 62.4516L32.2552 68.9472L30.7352 70.3933C29.8278 71.2551 28.5284 71.5831 27.321 71.2545L13.1265 67.3832C11.8571 67.0379 10.7117 66.3211 9.84402 65.3333L7.31655 62.4518L7.31849 62.4516Z" fill="#1ABFAB"/>
<defs>
<linearGradient id="paint0_linear_116_11759" x1="58.3375" y1="38.4432" x2="82.0371" y2="52.663" gradientUnits="userSpaceOnUse">
<stop stop-color="#26EFD7"/>
<stop offset="0.602104" stop-color="#1ABFAB"/>
</linearGradient>
<linearGradient id="paint1_linear_116_11759" x1="56.1501" y1="24.9528" x2="85.3188" y2="31.1511" gradientUnits="userSpaceOnUse">
<stop stop-color="#26EFD7"/>
<stop offset="1" stop-color="#1ABFAB"/>
</linearGradient>
<linearGradient id="paint2_linear_116_11759" x1="54.6915" y1="12.5556" x2="95.5277" y2="31.8799" gradientUnits="userSpaceOnUse">
<stop stop-color="#26EFD7"/>
<stop offset="1" stop-color="#1ABFAB"/>
</linearGradient>
<linearGradient id="paint3_linear_116_11759" x1="49.2223" y1="67.9762" x2="65.2651" y2="76.7269" gradientUnits="userSpaceOnUse">
<stop stop-color="#26EFD7"/>
<stop offset="1" stop-color="#1ABFAB"/>
</linearGradient>
<linearGradient id="paint4_linear_116_11759" x1="49.2225" y1="48.2878" x2="74.3806" y2="68.7059" gradientUnits="userSpaceOnUse">
<stop stop-color="#26EFD7"/>
<stop offset="1" stop-color="#1ABFAB"/>
</linearGradient>
</defs>
</svg>
