<svg width="153" height="38" viewBox="0 0 153 38" fill="none" xmlns="http://www.w3.org/2000/svg">
<path d="M6.50463 2.25908C7.03396 1.18627 8.18505 0.55514 9.37367 0.687159L13.1523 1.10519C13.6619 1.16166 13.8302 1.81876 13.4105 2.11372L12.6703 2.63352C12.3602 2.85102 11.9788 2.94588 11.6031 2.89865L6.50471 2.25965L6.50463 2.25908Z" fill="#26EFD7"/>
<path d="M17.8588 10.5234C18.5494 10.0555 19.2169 9.86706 19.7967 10.1019C20.6029 10.4285 21.2972 11.0013 21.7882 11.7343L26.4679 18.73C26.8143 19.2481 26.893 19.9051 26.6787 20.4905C26.5333 20.8875 26.0038 20.9596 25.7571 20.6161L21.0231 14.015C20.2535 12.9416 19.0916 12.2036 17.7928 11.964L17.6934 11.9456C17.1502 11.8454 16.9936 11.142 17.4429 10.8207L17.8582 10.5235L17.8588 10.5234Z" fill="url(#paint0_linear_116_11732)"/>
<path d="M3.53209 8.28806C3.81121 7.72203 4.4319 7.40446 5.05447 7.50915L12.5852 8.77511C12.9574 8.8379 13.3421 8.75413 13.6549 8.54317L17.5886 5.88629C17.9025 5.67461 18.2859 5.58525 18.661 5.63717L19.6779 5.77824C21.3707 6.01267 22.8734 7.01305 23.7431 8.48388L24.6145 9.95794C24.794 10.2615 25.1471 10.4197 25.4925 10.3515L27.3197 9.99258C27.6618 9.9255 28.0094 10.0926 28.1706 10.4017L28.6242 11.271C29.1586 12.2951 29.2374 13.5042 28.8401 14.5894L27.4667 12.134C27.2948 11.827 26.9453 11.662 26.5991 11.725L24.5577 12.0952C24.2081 12.1587 23.8529 12.0026 23.6635 11.7022L22.5963 10.0104C21.899 8.90492 20.7491 8.15076 19.4569 7.95178L18.4394 7.79517L13.8451 10.8207C13.53 11.0279 13.1444 11.106 12.7732 11.0379L4.10985 9.43831C3.58384 9.34084 3.2966 8.76895 3.53339 8.28902L3.53209 8.28806Z" fill="url(#paint1_linear_116_11732)"/>
<path d="M26.5852 7.36275C26.951 8.06374 26.5787 9.06254 25.8331 8.79824C25.6499 8.73314 25.4908 8.60373 25.3918 8.42669L24.1127 6.13972C23.4813 5.01066 22.3423 4.2439 21.0586 4.08304L18.1604 3.72021C17.7842 3.67307 17.4009 3.76299 17.0851 3.97323L13.166 6.57992C12.8512 6.78942 12.4666 6.87433 12.0929 6.81641L5.83 5.8514C5.32424 5.77353 5.04091 5.22827 5.26694 4.7696C5.53843 4.21859 6.13612 3.90209 6.74411 3.98634L11.6795 4.67015C12.0547 4.72207 12.4375 4.6328 12.7512 4.41998L16.519 1.86274C16.8331 1.64927 17.2152 1.5549 17.5923 1.59669L21.2485 2.00089C22.9284 2.18687 24.4156 3.20399 25.1967 4.70231L26.5846 7.36283L26.5852 7.36275Z" fill="url(#paint2_linear_116_11732)"/>
<path d="M25.8859 13.2011C26.232 13.1334 26.5847 13.2922 26.7642 13.5958L27.7795 15.3132C28.0894 15.8378 28.1481 16.4774 27.9387 17.0494C27.8033 17.4195 27.3029 17.4728 27.0924 17.1396L24.7477 13.4234L25.8855 13.2017L25.8859 13.2011Z" fill="#1ABFAB"/>
<path d="M0.320011 14.8025L0.389571 14.6615L3.66806 15.4257C4.02409 15.5088 4.31493 15.7705 4.43467 16.1164L4.65815 16.7625C4.86485 17.3613 4.32455 17.9501 3.71085 17.7954L1.43941 17.2235C0.379741 16.9568 -0.16329 15.7829 0.320011 14.8025Z" fill="#26EFD7"/>
<path d="M1.73917 11.9239C2.02592 11.3429 2.67082 11.0246 3.30596 11.1518L6.90764 11.8702C7.26541 11.9414 7.56221 12.1965 7.68615 12.5394L8.99752 16.1599C9.12227 16.5045 9.41521 16.7647 9.77238 16.8476L15.1312 18.0966C16.5104 18.4183 17.7605 19.1652 18.6969 20.2274L19.416 21.0438C19.6654 21.3272 19.7969 21.698 19.7811 22.0748L19.6793 24.5121L17.7083 22.4519C16.778 21.4791 15.5875 20.7865 14.2819 20.4575L7.90157 18.851C7.54631 18.7615 7.25894 18.4958 7.14244 18.1482L5.89606 14.4384C5.77981 14.0925 5.48856 13.8321 5.13223 13.7548L2.32742 13.1455C1.78035 13.0269 1.49064 12.4264 1.73803 11.9241L1.73917 11.9239Z" fill="url(#paint3_linear_116_11732)"/>
<path d="M25.111 22.2606C25.4975 22.767 25.5998 23.4396 25.381 24.0378C25.2224 24.471 24.628 24.5931 24.3909 24.1973C24.2383 23.9425 24.1585 23.648 24.1631 23.3481L24.1751 22.5366C24.1826 22.0521 24.7976 21.8494 25.0916 22.2345L25.111 22.26L25.111 22.2606Z" fill="#1ABFAB"/>
<path d="M19.3971 18.1598C18.5495 17.1303 17.3737 16.4123 16.0702 16.1293L11.1668 15.0646C10.8098 14.9869 10.5166 14.7284 10.3953 14.3839L10.1958 13.8182C9.97948 13.2052 10.5129 12.5896 11.151 12.7169L16.6526 13.8147C18.1768 14.1191 19.5455 14.9724 20.4889 16.2079L22.6058 18.9806C22.8366 19.2829 22.9577 19.6576 22.9465 20.0383L22.8238 24.302C22.8128 24.6799 22.9465 25.0497 23.1965 25.3331L24.4046 26.7038C24.0697 27.6189 22.8908 27.864 22.2192 27.1576L21.349 26.2431C21.0896 25.9704 20.9493 25.6033 20.9612 25.227L21.0992 20.8395C21.1112 20.4604 20.9842 20.0884 20.7432 19.7956L19.3972 18.1604L19.3971 18.1598Z" fill="url(#paint4_linear_116_11732)"/>
<path d="M14.0475 24.4972C13.734 24.2661 13.3805 24.094 13.0051 23.9895L10.6651 23.3368L11.0508 23.0075C11.33 22.769 11.7129 22.6844 12.0666 22.7829L13.0865 23.067C13.4619 23.1716 13.8163 23.3417 14.1332 23.5684L16.9365 25.5768C17.2536 25.804 17.6074 25.9748 17.9826 26.0817L19.0139 26.3758L20.459 26.7879L21.7825 28.0774L17.7072 26.9169C17.3327 26.8105 16.9791 26.6379 16.6646 26.4081L14.0475 24.4972Z" fill="#1ABFAB"/>
<path d="M15.6685 23.7866L18.0646 24.4542L19.4414 25.7955L18.1652 25.4379C17.7909 25.3326 17.4391 25.1563 17.1314 24.9179L15.6685 23.7861L15.6685 23.7866Z" fill="#1ABFAB"/>
<path d="M15.4194 26.2653L9.67972 24.6306C8.33377 24.2474 7.0755 23.5983 5.98257 22.7235L5.85728 22.6233L12.5241 24.525C12.8993 24.6319 13.256 24.7983 13.5788 25.0177L15.4195 26.2659L15.4194 26.2653Z" fill="#1ABFAB"/>
<path d="M4.03194 20.5422L8.46261 21.7772C8.81571 21.8757 9.19671 21.7862 9.46929 21.5418L10.112 20.9645C10.3851 20.7195 10.7656 20.6271 11.1207 20.7196L13.678 21.3855C14.9974 21.7292 16.196 22.4449 17.1247 23.4429L11.6289 21.9437C11.2738 21.8472 10.8908 21.9313 10.609 22.1678L10.032 22.6526C9.75014 22.8891 9.36757 22.9719 9.01317 22.8724L5.68743 21.9403C5.31738 21.8367 4.9844 21.627 4.73127 21.3383L4.03234 20.541L4.03194 20.5422Z" fill="#1ABFAB"/>
<path d="M2.1343 18.3792L9.40667 20.2735L8.96337 20.6952C8.69875 20.9466 8.3198 21.0422 7.96768 20.9464L3.82811 19.8174C3.45791 19.7167 3.12387 19.5076 2.87083 19.2196L2.13374 18.3792L2.1343 18.3792Z" fill="#1ABFAB"/>
<path d="M26.7634 30V29.3348L34.3529 7.86654H37.7395L45.3743 29.3348V30H42.7134L40.9295 24.8748H31.1629L29.4243 30H26.7634ZM31.9944 22.4559H40.1282L36.1823 11.0263H35.9101L31.9944 22.4559ZM47.5393 30V13.6569H50.1548V30H47.5393ZM47.5544 11.1624V7.86654H50.1548V11.1624H47.5544ZM53.6812 30V13.6569H56.2967V15.1385H56.6595C57.5666 13.9139 58.5191 13.6569 59.5925 13.6569H62.2836V16.1515H59.6228C57.4608 16.1515 56.2967 17.3307 56.2967 19.4927V30H53.6812ZM64.5181 35.609V13.6569H67.1336V15.4107H67.3755C68.6605 14.0802 70.4596 13.3243 72.4553 13.3243C76.9455 13.3243 79.9238 16.7109 79.9238 21.8511C79.9238 26.9763 76.9757 30.3326 72.4553 30.3326C70.4596 30.3326 68.6605 29.6069 67.3755 28.3067H67.1336V35.609H64.5181ZM66.8766 21.8511C66.8766 25.5854 68.9024 27.9439 72.1529 27.9439C75.3429 27.9439 77.3083 25.6459 77.3083 21.8511C77.3083 18.0715 75.3429 15.713 72.1529 15.713C68.9629 15.713 66.8766 18.132 66.8766 21.8511ZM82.8256 30V13.6569H85.4411V15.1385H85.804C86.7111 13.9139 87.6635 13.6569 88.7369 13.6569H91.428V16.1515H88.7672C86.6052 16.1515 85.4411 17.3307 85.4411 19.4927V30H82.8256ZM93.6625 30V13.6569H96.278V30H93.6625ZM93.6776 11.1624V7.86654H96.278V11.1624H93.6776Z" fill="white"/>
<rect x="103.227" y="12.2063" width="49.6889" height="18.2531" rx="9.12653" fill="#91DDCB" fill-opacity="0.1" stroke="#09E2F0" stroke-width="0.16901"/>
<rect x="109.761" y="15.9842" width="11.4742" height="10.6973" rx="1.07571" stroke="#27EECA" stroke-width="0.956183"/>
<path d="M130.572 24.3329H128.579V17.8758H130.66C131.286 17.8758 131.822 18.0051 132.268 18.2636C132.714 18.5201 133.055 18.8889 133.293 19.3703C133.53 19.8495 133.649 20.4233 133.649 21.0917C133.649 21.7643 133.529 22.3434 133.29 22.8289C133.05 23.3124 132.701 23.6844 132.243 23.9451C131.785 24.2036 131.228 24.3329 130.572 24.3329ZM129.361 23.6392H130.521C131.055 23.6392 131.498 23.5362 131.849 23.3303C132.2 23.1243 132.461 22.831 132.634 22.4506C132.806 22.0702 132.892 21.6172 132.892 21.0917C132.892 20.5705 132.807 20.1217 132.637 19.7455C132.467 19.3671 132.212 19.0771 131.874 18.8753C131.535 18.6714 131.114 18.5695 130.61 18.5695H129.361V23.6392ZM136.285 24.4464C135.978 24.4464 135.699 24.3886 135.449 24.273C135.199 24.1552 135 23.986 134.853 23.7653C134.706 23.5425 134.633 23.2735 134.633 22.9582C134.633 22.6808 134.687 22.4559 134.797 22.2835C134.906 22.109 135.052 21.9724 135.235 21.8736C135.418 21.7748 135.619 21.7013 135.84 21.6529C136.063 21.6025 136.287 21.5626 136.512 21.5331C136.806 21.4953 137.045 21.4669 137.227 21.448C137.412 21.427 137.547 21.3923 137.631 21.344C137.717 21.2956 137.76 21.2115 137.76 21.0917V21.0665C137.76 20.7554 137.675 20.5137 137.505 20.3414C137.337 20.169 137.081 20.0828 136.739 20.0828C136.384 20.0828 136.105 20.1606 135.903 20.3161C135.701 20.4717 135.56 20.6377 135.478 20.8143L134.771 20.5621C134.897 20.2678 135.066 20.0387 135.276 19.8747C135.488 19.7087 135.719 19.5931 135.969 19.5279C136.222 19.4607 136.47 19.427 136.714 19.427C136.869 19.427 137.048 19.4459 137.249 19.4838C137.453 19.5195 137.65 19.5941 137.839 19.7076C138.03 19.8211 138.189 19.9924 138.315 20.2215C138.441 20.4507 138.504 20.7575 138.504 21.1422V24.3329H137.76V23.6771H137.722C137.672 23.7822 137.588 23.8946 137.47 24.0144C137.352 24.1342 137.196 24.2362 137 24.3202C136.805 24.4043 136.566 24.4464 136.285 24.4464ZM136.398 23.778C136.692 23.778 136.941 23.7202 137.142 23.6045C137.346 23.4889 137.5 23.3397 137.603 23.1568C137.708 22.974 137.76 22.7817 137.76 22.5799V21.8989C137.729 21.9367 137.659 21.9714 137.552 22.0029C137.447 22.0323 137.325 22.0586 137.186 22.0817C137.05 22.1027 136.916 22.1217 136.786 22.1385C136.658 22.1532 136.554 22.1658 136.474 22.1763C136.281 22.2015 136.1 22.2425 135.932 22.2993C135.766 22.3539 135.631 22.4369 135.528 22.5483C135.427 22.6576 135.377 22.8069 135.377 22.996C135.377 23.2546 135.472 23.4501 135.664 23.5825C135.857 23.7128 136.102 23.778 136.398 23.778ZM141.969 19.4901V20.1207H139.459V19.4901H141.969ZM140.19 18.3298H140.934V22.9456C140.934 23.1558 140.965 23.3134 141.026 23.4185C141.089 23.5215 141.169 23.5909 141.265 23.6266C141.364 23.6602 141.468 23.6771 141.578 23.6771C141.66 23.6771 141.727 23.6729 141.779 23.6645C141.832 23.6539 141.874 23.6455 141.905 23.6392L142.057 24.3076C142.006 24.3265 141.936 24.3455 141.846 24.3644C141.755 24.3854 141.641 24.3959 141.502 24.3959C141.292 24.3959 141.086 24.3507 140.884 24.2603C140.684 24.17 140.518 24.0323 140.386 23.8473C140.255 23.6624 140.19 23.429 140.19 23.1474V18.3298ZM144.513 24.4464C144.206 24.4464 143.927 24.3886 143.677 24.273C143.427 24.1552 143.229 23.986 143.081 23.7653C142.934 23.5425 142.861 23.2735 142.861 22.9582C142.861 22.6808 142.915 22.4559 143.025 22.2835C143.134 22.109 143.28 21.9724 143.463 21.8736C143.646 21.7748 143.848 21.7013 144.068 21.6529C144.291 21.6025 144.515 21.5626 144.74 21.5331C145.034 21.4953 145.273 21.4669 145.456 21.448C145.641 21.427 145.775 21.3923 145.859 21.344C145.945 21.2956 145.988 21.2115 145.988 21.0917V21.0665C145.988 20.7554 145.903 20.5137 145.733 20.3414C145.565 20.169 145.309 20.0828 144.967 20.0828C144.612 20.0828 144.333 20.1606 144.131 20.3161C143.93 20.4717 143.788 20.6377 143.706 20.8143L142.999 20.5621C143.126 20.2678 143.294 20.0387 143.504 19.8747C143.716 19.7087 143.947 19.5931 144.198 19.5279C144.45 19.4607 144.698 19.427 144.942 19.427C145.097 19.427 145.276 19.4459 145.478 19.4838C145.682 19.5195 145.878 19.5941 146.067 19.7076C146.258 19.8211 146.417 19.9924 146.543 20.2215C146.669 20.4507 146.732 20.7575 146.732 21.1422V24.3329H145.988V23.6771H145.951C145.9 23.7822 145.816 23.8946 145.698 24.0144C145.581 24.1342 145.424 24.2362 145.229 24.3202C145.033 24.4043 144.795 24.4464 144.513 24.4464ZM144.626 23.778C144.921 23.778 145.169 23.7202 145.37 23.6045C145.574 23.4889 145.728 23.3397 145.831 23.1568C145.936 22.974 145.988 22.7817 145.988 22.5799V21.8989C145.957 21.9367 145.888 21.9714 145.78 22.0029C145.675 22.0323 145.553 22.0586 145.415 22.0817C145.278 22.1027 145.144 22.1217 145.014 22.1385C144.886 22.1532 144.782 22.1658 144.702 22.1763C144.509 22.2015 144.328 22.2425 144.16 22.2993C143.994 22.3539 143.859 22.4369 143.756 22.5483C143.655 22.6576 143.605 22.8069 143.605 22.996C143.605 23.2546 143.7 23.4501 143.892 23.5825C144.085 23.7128 144.33 23.778 144.626 23.778Z" fill="#26EFD7"/>
<path fill-rule="evenodd" clip-rule="evenodd" d="M113.28 27.0133V24.6826L110.172 24.6826L110.172 23.9057L113.28 23.9057V21.575L110.172 21.575L110.172 20.7981L113.28 20.7981V20.7981H114.057V20.7981L117.164 20.7981V20.7981H117.941V20.7981L121.049 20.7981L121.049 21.575L117.941 21.575V23.9057L121.049 23.9057L121.049 24.6826L117.941 24.6826V27.0133H117.164V24.6826L114.057 24.6826V27.0133H113.28ZM117.164 23.9057V21.575L114.057 21.575V23.9057L117.164 23.9057Z" fill="#27EECA"/>
<defs>
<linearGradient id="paint0_linear_116_11732" x1="17.0131" y1="11.3775" x2="23.9247" y2="15.5245" gradientUnits="userSpaceOnUse">
<stop stop-color="#26EFD7"/>
<stop offset="0.602104" stop-color="#1ABFAB"/>
</linearGradient>
<linearGradient id="paint1_linear_116_11732" x1="16.3752" y1="7.44322" x2="24.8817" y2="9.25086" gradientUnits="userSpaceOnUse">
<stop stop-color="#26EFD7"/>
<stop offset="1" stop-color="#1ABFAB"/>
</linearGradient>
<linearGradient id="paint2_linear_116_11732" x1="15.9498" y1="3.82793" x2="27.859" y2="9.46352" gradientUnits="userSpaceOnUse">
<stop stop-color="#26EFD7"/>
<stop offset="1" stop-color="#1ABFAB"/>
</linearGradient>
<linearGradient id="paint3_linear_116_11732" x1="14.3548" y1="19.9904" x2="19.0334" y2="22.5424" gradientUnits="userSpaceOnUse">
<stop stop-color="#26EFD7"/>
<stop offset="1" stop-color="#1ABFAB"/>
</linearGradient>
<linearGradient id="paint4_linear_116_11732" x1="14.3548" y1="14.2485" x2="21.6917" y2="20.2031" gradientUnits="userSpaceOnUse">
<stop stop-color="#26EFD7"/>
<stop offset="1" stop-color="#1ABFAB"/>
</linearGradient>
</defs>
</svg>
