<svg width="246" height="157" viewBox="0 0 246 157" fill="none" xmlns="http://www.w3.org/2000/svg">
<path d="M229.893 0.412598H13.7943C6.58001 0.412598 0.731689 6.26092 0.731689 13.4752V134.626C0.731689 141.84 6.58001 147.688 13.7943 147.688H229.893C237.107 147.688 242.956 141.84 242.956 134.626V13.4752C242.956 6.26092 237.107 0.412598 229.893 0.412598Z" fill="white" fill-opacity="0.18" stroke="#DAE1EF" stroke-width="0.641581" stroke-miterlimit="10"/>
<path d="M18.8386 19.375C20.9867 19.375 22.728 17.6337 22.728 15.4856C22.728 13.3375 20.9867 11.5962 18.8386 11.5962C16.6906 11.5962 14.9492 13.3375 14.9492 15.4856C14.9492 17.6337 16.6906 19.375 18.8386 19.375Z" fill="#DAE1EF" stroke="white" stroke-width="0.641581" stroke-miterlimit="10"/>
<path d="M29.9963 19.375C32.1444 19.375 33.8857 17.6337 33.8857 15.4856C33.8857 13.3375 32.1444 11.5962 29.9963 11.5962C27.8483 11.5962 26.1069 13.3375 26.1069 15.4856C26.1069 17.6337 27.8483 19.375 29.9963 19.375Z" fill="#DAE1EF" stroke="white" stroke-width="0.641581" stroke-miterlimit="10"/>
<path d="M41.1538 19.375C43.3019 19.375 45.0432 17.6337 45.0432 15.4856C45.0432 13.3375 43.3019 11.5962 41.1538 11.5962C39.0058 11.5962 37.2644 13.3375 37.2644 15.4856C37.2644 17.6337 39.0058 19.375 41.1538 19.375Z" fill="#DAE1EF" stroke="white" stroke-width="0.641581" stroke-miterlimit="10"/>
<path d="M24.875 50.5982C30.3554 50.5982 34.7981 46.1555 34.7981 40.6751C34.7981 35.1947 30.3554 30.752 24.875 30.752C19.3946 30.752 14.9519 35.1947 14.9519 40.6751C14.9519 46.1555 19.3946 50.5982 24.875 50.5982Z" fill="#26EFD7"/>
<path d="M21.1624 44.3853L23.6802 39.4807L28.5847 36.9629L26.0697 41.8703L21.1624 44.3853Z" stroke="white" stroke-width="0.749937" stroke-linecap="round" stroke-linejoin="round"/>
<path d="M48.6513 37.1384V37.9536H46.6738V39.3348H48.4249V40.15H46.6738V41.6067H48.6513V42.4219H45.6095V37.1384H48.6513ZM50.8015 38.2404V38.8668C51.0682 38.4089 51.501 38.18 52.0997 38.18C52.4168 38.18 52.6985 38.2529 52.9451 38.3989C53.1967 38.5448 53.3904 38.7536 53.5263 39.0253C53.6722 38.7637 53.871 38.5574 54.1226 38.4064C54.3792 38.2555 54.666 38.18 54.983 38.18C55.4812 38.18 55.8812 38.336 56.1831 38.648C56.4901 38.9599 56.6435 39.3977 56.6435 39.9613V42.4219H55.5869V40.1122C55.5869 39.7852 55.5038 39.5361 55.3378 39.365C55.1717 39.1889 54.9453 39.1008 54.6585 39.1008C54.3716 39.1008 54.1427 39.1889 53.9716 39.365C53.8056 39.5361 53.7225 39.7852 53.7225 40.1122V42.4219H52.6658V40.1122C52.6658 39.7852 52.5828 39.5361 52.4168 39.365C52.2507 39.1889 52.0243 39.1008 51.7375 39.1008C51.4506 39.1008 51.2217 39.1889 51.0506 39.365C50.8845 39.5361 50.8015 39.7852 50.8015 40.1122V42.4219H49.7373V38.2404H50.8015ZM60.6709 41.2293C60.8923 41.0079 61.003 40.706 61.003 40.3236C61.003 39.9412 60.8923 39.6418 60.6709 39.4254C60.4545 39.209 60.1979 39.1008 59.901 39.1008C59.6041 39.1008 59.345 39.2115 59.1235 39.4329C58.9072 39.6493 58.799 39.9487 58.799 40.3311C58.799 40.7135 58.9072 41.0155 59.1235 41.2369C59.345 41.4532 59.6041 41.5614 59.901 41.5614C60.1979 41.5614 60.4545 41.4507 60.6709 41.2293ZM58.799 38.8895C59.0959 38.4165 59.5311 38.18 60.1048 38.18C60.6784 38.18 61.1514 38.3813 61.5238 38.7838C61.8961 39.1813 62.0823 39.6971 62.0823 40.3311C62.0823 40.9601 61.8961 41.4759 61.5238 41.8784C61.1514 42.281 60.6809 42.4823 60.1123 42.4823C59.5487 42.4823 59.111 42.2281 58.799 41.7199V42.4219H57.7347V36.8365H58.799V38.8895ZM64.6827 42.4823C64.0739 42.4823 63.5782 42.286 63.1958 41.8935C62.8134 41.496 62.6221 40.9727 62.6221 40.3236C62.6221 39.6745 62.8134 39.1562 63.1958 38.7687C63.5832 38.3762 64.0814 38.18 64.6903 38.18C65.3041 38.18 65.8073 38.3712 66.1998 38.7536C66.5923 39.131 66.7886 39.6367 66.7886 40.2707C66.7886 40.4167 66.7785 40.5525 66.7584 40.6783H63.709C63.7342 40.95 63.8348 41.1689 64.011 41.335C64.1871 41.501 64.411 41.5841 64.6827 41.5841C65.05 41.5841 65.3218 41.4331 65.4979 41.1312H66.6451C66.5244 41.5287 66.2904 41.8533 65.9432 42.1049C65.596 42.3565 65.1758 42.4823 64.6827 42.4823ZM65.6866 39.9915C65.6715 39.7147 65.5683 39.4933 65.3771 39.3273C65.1909 39.1612 64.9645 39.0782 64.6978 39.0782C64.4311 39.0782 64.2072 39.1612 64.026 39.3273C63.8499 39.4933 63.7443 39.7147 63.709 39.9915H65.6866ZM70.2909 41.2369C70.5123 41.0155 70.623 40.7135 70.623 40.3311C70.623 39.9487 70.5123 39.6493 70.2909 39.4329C70.0695 39.2115 69.8104 39.1008 69.5135 39.1008C69.2166 39.1008 68.9575 39.209 68.7361 39.4254C68.5197 39.6418 68.4115 39.9412 68.4115 40.3236C68.4115 40.706 68.5222 41.0079 68.7436 41.2293C68.965 41.4507 69.2217 41.5614 69.5135 41.5614C69.8104 41.5614 70.0695 41.4532 70.2909 41.2369ZM67.8907 41.8784C67.5184 41.4708 67.3322 40.9526 67.3322 40.3236C67.3322 39.6946 67.5184 39.1813 67.8907 38.7838C68.2631 38.3813 68.7361 38.18 69.3097 38.18C69.8834 38.18 70.3211 38.4165 70.623 38.8895V36.8365H71.6797V42.4219H70.623V41.7199C70.306 42.2281 69.8657 42.4823 69.3022 42.4823C68.7386 42.4823 68.2681 42.281 67.8907 41.8784ZM77.4639 42.4219H76.3996V40.6104L74.6183 37.1535H75.8109L76.9355 39.6367L78.0526 37.1535H79.2452L77.4639 40.6104V42.4219ZM81.778 41.5841C82.0749 41.5841 82.329 41.4759 82.5404 41.2595C82.7567 41.0381 82.8649 40.7286 82.8649 40.3311C82.8649 39.9286 82.7593 39.6191 82.5479 39.4027C82.3366 39.1864 82.08 39.0782 81.778 39.0782C81.4812 39.0782 81.2296 39.1864 81.0233 39.4027C80.817 39.6191 80.7138 39.9286 80.7138 40.3311C80.7138 40.7337 80.817 41.0431 81.0233 41.2595C81.2296 41.4759 81.4812 41.5841 81.778 41.5841ZM80.2458 41.886C79.8382 41.4885 79.6345 40.9677 79.6345 40.3236C79.6345 39.6795 79.8408 39.1612 80.2534 38.7687C80.666 38.3762 81.1767 38.18 81.7856 38.18C82.3995 38.18 82.9127 38.3762 83.3254 38.7687C83.738 39.1612 83.9443 39.6795 83.9443 40.3236C83.9443 40.9677 83.7355 41.4885 83.3178 41.886C82.9052 42.2835 82.3919 42.4823 81.778 42.4823C81.1642 42.4823 80.6534 42.2835 80.2458 41.886ZM87.6694 38.2404H88.7336V42.4219H87.6694V41.7879C87.4027 42.2458 86.9674 42.4747 86.3636 42.4747C85.8906 42.4747 85.5031 42.3187 85.2012 42.0067C84.8993 41.6897 84.7484 41.252 84.7484 40.6934V38.2404H85.8051V40.5425C85.8051 40.8695 85.8881 41.1211 86.0541 41.2972C86.2202 41.4734 86.4466 41.5614 86.7334 41.5614C87.0203 41.5614 87.2467 41.4734 87.4127 41.2972C87.5838 41.1211 87.6694 40.8695 87.6694 40.5425V38.2404ZM90.9289 38.2404V38.9801C91.2107 38.4467 91.6183 38.18 92.1517 38.18V39.2669H91.8875C91.5705 39.2669 91.3315 39.3474 91.1704 39.5084C91.0094 39.6644 90.9289 39.9361 90.9289 40.3236V42.4219H89.8647V38.2404H90.9289ZM96.8776 37.9309C96.6662 37.9309 96.4926 37.9863 96.3568 38.097C96.2259 38.2026 96.1605 38.3511 96.1605 38.5423C96.1605 38.7335 96.2083 38.8845 96.3039 38.9952C96.4046 39.1008 96.5354 39.1838 96.6964 39.2442C96.8574 39.2996 97.0336 39.3499 97.2248 39.3952C97.416 39.4405 97.6072 39.4958 97.7984 39.5612C97.9896 39.6267 98.1657 39.7072 98.3268 39.8028C98.4878 39.8984 98.6161 40.0393 98.7117 40.2255C98.8123 40.4066 98.8626 40.628 98.8626 40.8897C98.8626 41.3224 98.689 41.6948 98.3418 42.0067C97.9997 42.3187 97.5418 42.4747 96.9681 42.4747C96.3995 42.4747 95.9391 42.3414 95.5869 42.0747C95.2347 41.803 95.0585 41.423 95.0585 40.9349H96.1907C96.231 41.3979 96.4951 41.6294 96.9832 41.6294C97.2248 41.6294 97.416 41.5665 97.5569 41.4407C97.6978 41.3149 97.7682 41.1488 97.7682 40.9425C97.7682 40.7312 97.6751 40.5651 97.4889 40.4443C97.3028 40.3236 97.0763 40.233 96.8096 40.1726C96.548 40.1122 96.2838 40.0393 96.0171 39.9537C95.7504 39.8682 95.524 39.7197 95.3378 39.5084C95.1516 39.292 95.0585 39.0077 95.0585 38.6555C95.0585 38.1775 95.2321 37.795 95.5793 37.5082C95.9265 37.2214 96.3719 37.078 96.9153 37.078C97.4638 37.078 97.9041 37.2038 98.2362 37.4554C98.5683 37.702 98.7494 38.0793 98.7796 38.5876H97.6173C97.5971 38.3863 97.5216 38.2278 97.3908 38.1121C97.26 37.9913 97.0889 37.9309 96.8776 37.9309ZM102.818 41.2293C103.039 41.0079 103.15 40.706 103.15 40.3236C103.15 39.9412 103.039 39.6418 102.818 39.4254C102.602 39.209 102.345 39.1008 102.048 39.1008C101.751 39.1008 101.492 39.2115 101.271 39.4329C101.054 39.6493 100.946 39.9487 100.946 40.3311C100.946 40.7135 101.054 41.0155 101.271 41.2369C101.492 41.4532 101.751 41.5614 102.048 41.5614C102.345 41.5614 102.602 41.4507 102.818 41.2293ZM100.946 38.8895C101.243 38.4165 101.678 38.18 102.252 38.18C102.825 38.18 103.298 38.3813 103.671 38.7838C104.043 39.1813 104.229 39.6971 104.229 40.3311C104.229 40.9601 104.043 41.4759 103.671 41.8784C103.298 42.281 102.828 42.4823 102.259 42.4823C101.696 42.4823 101.258 42.2281 100.946 41.7199V44.4145H99.8818V38.2404H100.946V38.8895ZM106.128 38.2404V38.9801C106.41 38.4467 106.817 38.18 107.351 38.18V39.2669H107.086C106.769 39.2669 106.53 39.3474 106.369 39.5084C106.208 39.6644 106.128 39.9361 106.128 40.3236V42.4219H105.064V38.2404H106.128ZM109.874 42.4823C109.265 42.4823 108.769 42.286 108.387 41.8935C108.005 41.496 107.813 40.9727 107.813 40.3236C107.813 39.6745 108.005 39.1562 108.387 38.7687C108.774 38.3762 109.273 38.18 109.881 38.18C110.495 38.18 110.999 38.3712 111.391 38.7536C111.784 39.131 111.98 39.6367 111.98 40.2707C111.98 40.4167 111.97 40.5525 111.95 40.6783H108.9C108.925 40.95 109.026 41.1689 109.202 41.335C109.378 41.501 109.602 41.5841 109.874 41.5841C110.241 41.5841 110.513 41.4331 110.689 41.1312H111.836C111.716 41.5287 111.482 41.8533 111.134 42.1049C110.787 42.3565 110.367 42.4823 109.874 42.4823ZM110.878 39.9915C110.863 39.7147 110.76 39.4933 110.568 39.3273C110.382 39.1612 110.156 39.0782 109.889 39.0782C109.622 39.0782 109.398 39.1612 109.217 39.3273C109.041 39.4933 108.935 39.7147 108.9 39.9915H110.878ZM115.482 41.2369C115.704 41.0155 115.814 40.7135 115.814 40.3311C115.814 39.9487 115.704 39.6493 115.482 39.4329C115.261 39.2115 115.002 39.1008 114.705 39.1008C114.408 39.1008 114.149 39.209 113.927 39.4254C113.711 39.6418 113.603 39.9412 113.603 40.3236C113.603 40.706 113.713 41.0079 113.935 41.2293C114.156 41.4507 114.413 41.5614 114.705 41.5614C115.002 41.5614 115.261 41.4532 115.482 41.2369ZM113.082 41.8784C112.71 41.4708 112.523 40.9526 112.523 40.3236C112.523 39.6946 112.71 39.1813 113.082 38.7838C113.454 38.3813 113.927 38.18 114.501 38.18C115.075 38.18 115.512 38.4165 115.814 38.8895V38.2404H116.871V42.4219H115.814V41.7199C115.497 42.2281 115.057 42.4823 114.493 42.4823C113.93 42.4823 113.459 42.281 113.082 41.8784ZM120.664 41.2369C120.885 41.0155 120.996 40.7135 120.996 40.3311C120.996 39.9487 120.885 39.6493 120.664 39.4329C120.443 39.2115 120.183 39.1008 119.887 39.1008C119.59 39.1008 119.33 39.209 119.109 39.4254C118.893 39.6418 118.785 39.9412 118.785 40.3236C118.785 40.706 118.895 41.0079 119.117 41.2293C119.338 41.4507 119.595 41.5614 119.887 41.5614C120.183 41.5614 120.443 41.4532 120.664 41.2369ZM118.264 41.8784C117.891 41.4708 117.705 40.9526 117.705 40.3236C117.705 39.6946 117.891 39.1813 118.264 38.7838C118.636 38.3813 119.109 38.18 119.683 38.18C120.256 38.18 120.694 38.4165 120.996 38.8895V36.8365H122.053V42.4219H120.996V41.7199C120.679 42.2281 120.239 42.4823 119.675 42.4823C119.112 42.4823 118.641 42.281 118.264 41.8784ZM122.947 39.4631C122.947 39.1008 123.101 38.7964 123.408 38.5498C123.715 38.3033 124.122 38.18 124.631 38.18C125.139 38.18 125.546 38.3033 125.853 38.5498C126.16 38.7914 126.324 39.121 126.344 39.5386H125.257C125.227 39.1864 125.01 39.0102 124.608 39.0102C124.407 39.0102 124.251 39.0505 124.14 39.131C124.029 39.2115 123.974 39.3222 123.974 39.4631C123.974 39.604 124.057 39.7147 124.223 39.7952C124.389 39.8757 124.59 39.9386 124.827 39.9839C125.063 40.0292 125.297 40.0871 125.529 40.1575C125.765 40.2229 125.966 40.3437 126.133 40.5198C126.299 40.6909 126.382 40.9199 126.382 41.2067C126.382 41.5841 126.221 41.891 125.899 42.1275C125.582 42.364 125.174 42.4823 124.676 42.4823C124.183 42.4823 123.778 42.3665 123.461 42.1351C123.144 41.8986 122.97 41.5614 122.94 41.1236H124.027C124.067 41.4759 124.291 41.652 124.698 41.652C124.895 41.652 125.053 41.6092 125.174 41.5237C125.295 41.4331 125.355 41.3174 125.355 41.1765C125.355 41.0306 125.272 40.9173 125.106 40.8368C124.94 40.7513 124.739 40.6859 124.502 40.6406C124.266 40.5953 124.029 40.5399 123.793 40.4745C123.561 40.4091 123.362 40.2934 123.196 40.1273C123.03 39.9562 122.947 39.7348 122.947 39.4631ZM128.351 36.8365V38.8668C128.618 38.4089 129.051 38.18 129.649 38.18C130.127 38.18 130.517 38.3385 130.819 38.6555C131.121 38.9675 131.272 39.4027 131.272 39.9613V42.4219H130.216V40.1122C130.216 39.7852 130.132 39.5361 129.966 39.365C129.8 39.1889 129.574 39.1008 129.287 39.1008C129 39.1008 128.771 39.1889 128.6 39.365C128.434 39.5361 128.351 39.7852 128.351 40.1122V42.4219H127.287V36.8365H128.351ZM134.132 42.4823C133.523 42.4823 133.027 42.286 132.645 41.8935C132.262 41.496 132.071 40.9727 132.071 40.3236C132.071 39.6745 132.262 39.1562 132.645 38.7687C133.032 38.3762 133.53 38.18 134.139 38.18C134.753 38.18 135.256 38.3712 135.649 38.7536C136.041 39.131 136.238 39.6367 136.238 40.2707C136.238 40.4167 136.227 40.5525 136.207 40.6783H133.158C133.183 40.95 133.284 41.1689 133.46 41.335C133.636 41.501 133.86 41.5841 134.132 41.5841C134.499 41.5841 134.771 41.4331 134.947 41.1312H136.094C135.973 41.5287 135.739 41.8533 135.392 42.1049C135.045 42.3565 134.625 42.4823 134.132 42.4823ZM135.136 39.9915C135.12 39.7147 135.017 39.4933 134.826 39.3273C134.64 39.1612 134.414 39.0782 134.147 39.0782C133.88 39.0782 133.656 39.1612 133.475 39.3273C133.299 39.4933 133.193 39.7147 133.158 39.9915H135.136ZM138.842 42.4823C138.233 42.4823 137.737 42.286 137.355 41.8935C136.972 41.496 136.781 40.9727 136.781 40.3236C136.781 39.6745 136.972 39.1562 137.355 38.7687C137.742 38.3762 138.24 38.18 138.849 38.18C139.463 38.18 139.966 38.3712 140.359 38.7536C140.751 39.131 140.948 39.6367 140.948 40.2707C140.948 40.4167 140.938 40.5525 140.917 40.6783H137.868C137.893 40.95 137.994 41.1689 138.17 41.335C138.346 41.501 138.57 41.5841 138.842 41.5841C139.209 41.5841 139.481 41.4331 139.657 41.1312H140.804C140.683 41.5287 140.449 41.8533 140.102 42.1049C139.755 42.3565 139.335 42.4823 138.842 42.4823ZM139.846 39.9915C139.831 39.7147 139.727 39.4933 139.536 39.3273C139.35 39.1612 139.124 39.0782 138.857 39.0782C138.59 39.0782 138.366 39.1612 138.185 39.3273C138.009 39.4933 137.903 39.7147 137.868 39.9915H139.846ZM143.408 41.5312H143.914V42.4219H143.242C142.815 42.4219 142.485 42.3238 142.254 42.1275C142.022 41.9313 141.906 41.6067 141.906 41.1538V39.1084H141.461V38.2404H141.906V37.2063H142.971V38.2404H143.907V39.1084H142.971V41.1538C142.971 41.2897 143.003 41.3878 143.069 41.4482C143.134 41.5036 143.247 41.5312 143.408 41.5312Z" fill="black"/>
<path d="M141.931 60.5503H23.0759C18.5877 60.5503 14.9492 64.1887 14.9492 68.677V116.49C14.9492 120.979 18.5877 124.617 23.0759 124.617H141.931C146.419 124.617 150.058 120.979 150.058 116.49V68.677C150.058 64.1887 146.419 60.5503 141.931 60.5503Z" fill="#EDF9F7"/>
<path d="M141.931 65.1123H23.0758C21.1073 65.1123 19.5115 66.7081 19.5115 68.6766V116.49C19.5115 118.459 21.1073 120.054 23.0758 120.054H141.931C143.899 120.054 145.495 118.459 145.495 116.49V68.6766C145.495 66.7081 143.899 65.1123 141.931 65.1123Z" stroke="#181818" stroke-width="0.641581" stroke-miterlimit="10" stroke-dasharray="3.42 3.42"/>
<path d="M245.268 87.7074V152.402C245.268 153.512 244.827 154.577 244.042 155.362C243.257 156.147 242.192 156.588 241.082 156.588H122.313C121.762 156.588 121.217 156.481 120.709 156.271C120.2 156.061 119.738 155.752 119.349 155.364C118.96 154.975 118.651 154.513 118.44 154.005C118.229 153.497 118.121 152.952 118.121 152.402V87.7074C118.121 86.5973 118.562 85.5325 119.347 84.7475C120.132 83.9625 121.197 83.5215 122.307 83.5215H241.082C242.192 83.5215 243.257 83.9625 244.042 84.7475C244.827 85.5325 245.268 86.5973 245.268 87.7074Z" fill="white" stroke="#1AD3B8" stroke-width="0.570294" stroke-miterlimit="10"/>
<path d="M245.268 87.7074V93.9807H140.411V156.588H122.313C121.762 156.588 121.217 156.481 120.709 156.271C120.2 156.061 119.738 155.752 119.349 155.364C118.96 154.975 118.651 154.513 118.44 154.005C118.229 153.497 118.121 152.952 118.121 152.402V87.7074C118.121 86.5973 118.562 85.5325 119.347 84.7475C120.132 83.9625 121.197 83.5215 122.307 83.5215H241.082C242.192 83.5215 243.257 83.9625 244.042 84.7475C244.827 85.5325 245.268 86.5973 245.268 87.7074Z" fill="#EDF9F7" stroke="#1AD3B8" stroke-width="0.570294" stroke-miterlimit="10"/>
<path d="M118.127 93.9922H245.268" stroke="#1AD3B8" stroke-width="0.570294" stroke-miterlimit="10"/>
<path d="M118.127 104.462H245.268" stroke="#1AD3B8" stroke-width="0.570294" stroke-miterlimit="10"/>
<path d="M118.127 114.933H245.268" stroke="#1AD3B8" stroke-width="0.570294" stroke-miterlimit="10"/>
<path d="M118.127 125.404H245.268" stroke="#1AD3B8" stroke-width="0.570294" stroke-miterlimit="10"/>
<path d="M118.127 135.875H245.268" stroke="#1AD3B8" stroke-width="0.570294" stroke-miterlimit="10"/>
<path d="M118.127 146.345H245.268" stroke="#1AD3B8" stroke-width="0.570294" stroke-miterlimit="10"/>
<path d="M140.414 83.5215V156.588" stroke="#1AD3B8" stroke-width="0.570294" stroke-miterlimit="10"/>
<path d="M166.627 83.5215V156.588" stroke="#1AD3B8" stroke-width="0.570294" stroke-miterlimit="10"/>
<path d="M192.841 83.5215V156.588" stroke="#1AD3B8" stroke-width="0.570294" stroke-miterlimit="10"/>
<path d="M219.054 83.5215V156.588" stroke="#1AD3B8" stroke-width="0.570294" stroke-miterlimit="10"/>
<path d="M200.654 77.2936C191.626 56.9084 170.95 60.1135 172.844 69.5775C174.737 79.0415 186.323 55.7963 160.582 62.1779" fill="white"/>
<path d="M200.654 77.2936C191.626 56.9084 170.95 60.1135 172.844 69.5775C174.737 79.0415 186.323 55.7963 160.582 62.1779" stroke="#181818" stroke-width="0.641581" stroke-miterlimit="10"/>
<path d="M158.777 62.7144L162.065 63.393L161.155 60.3477L158.777 62.7144Z" fill="#181818"/>
<path d="M191.484 51.7388V58.5823L199.128 52.6142L191.484 51.7388Z" fill="white" stroke="#181818" stroke-width="0.570294" stroke-miterlimit="10"/>
<path d="M209.816 23.98H191.492C188.229 23.98 185.584 26.6252 185.584 29.8882V48.2118C185.584 51.4748 188.229 54.12 191.492 54.12H209.816C213.079 54.12 215.724 51.4748 215.724 48.2118V29.8882C215.724 26.6252 213.079 23.98 209.816 23.98Z" fill="white" stroke="#181818" stroke-width="0.570294" stroke-miterlimit="10"/>
<path d="M91.9617 86.3448V101.92C91.9617 102.594 91.6937 103.241 91.2167 103.718C90.7397 104.195 90.0927 104.463 89.4181 104.463H75.5914C74.9168 104.463 74.2698 104.195 73.7928 103.718C73.3158 103.241 73.0479 102.594 73.0479 101.92V83.2481C73.0479 82.5735 73.3158 81.9266 73.7928 81.4496C74.2698 80.9726 74.9168 80.7046 75.5914 80.7046H86.3215C86.5037 80.7045 86.6854 80.7245 86.8632 80.7645C87.3384 80.8675 87.774 81.1051 88.1179 81.4488L91.2146 84.5455C91.5723 84.9 91.8148 85.3542 91.9103 85.8487C91.9446 86.0118 91.9618 86.1781 91.9617 86.3448Z" stroke="#181818" stroke-width="0.570294" stroke-miterlimit="10"/>
<path d="M91.9101 85.8488H88.3487C87.9546 85.8488 87.5768 85.6923 87.2982 85.4137C87.0196 85.1351 86.863 84.7572 86.863 84.3632V80.7646C87.3382 80.8677 87.7738 81.1053 88.1177 81.449L91.2144 84.5457C91.5721 84.9002 91.8146 85.3544 91.9101 85.8488Z" stroke="#181818" stroke-width="0.570294" stroke-miterlimit="10"/>
<path d="M83.0052 89.6719H82.0015V95.4974H83.0052V89.6719Z" fill="#181818"/>
<path d="M85.4146 93.0853V92.0815H79.589V93.0853H85.4146Z" fill="#181818"/>
<path d="M200.654 47.4989C205.32 47.4989 209.103 43.7162 209.103 39.05C209.103 34.3838 205.32 30.6011 200.654 30.6011C195.988 30.6011 192.205 34.3838 192.205 39.05C192.205 43.7162 195.988 47.4989 200.654 47.4989Z" fill="#26EFD7"/>
<path d="M194.988 39.5831C194.915 39.5399 194.855 39.4786 194.813 39.4051C194.771 39.3316 194.75 39.2485 194.75 39.164C194.75 39.0794 194.771 38.9963 194.813 38.9228C194.855 38.8493 194.915 38.788 194.988 38.7448C196.365 37.9264 197.161 37.4559 197.363 37.319C197.482 37.2427 197.606 37.1741 197.734 37.1137C197.784 37.0929 197.837 37.0832 197.891 37.0852C197.996 37.0852 198.11 37.1822 198.227 37.3704C198.289 37.4541 198.328 37.5523 198.341 37.6555C198.343 37.7118 198.328 37.7674 198.299 37.8152C198.236 37.9077 198.152 37.9839 198.053 38.0376C196.853 38.7476 196.231 39.1155 196.183 39.1497L198.053 40.2589C198.11 40.2916 198.164 40.3278 198.216 40.3673C198.254 40.394 198.286 40.4292 198.309 40.4703C198.332 40.5113 198.345 40.5571 198.347 40.6039C198.338 40.7068 198.302 40.8053 198.242 40.8891C198.191 40.9798 198.128 41.0625 198.053 41.1343C198.004 41.1777 197.942 41.2028 197.877 41.2056C197.764 41.1951 197.656 41.1559 197.563 41.0915L194.988 39.5831Z" fill="#181818"/>
<path d="M200.132 41.2914C200.098 41.3599 200.075 41.4083 200.055 41.4397C200.033 41.4774 200.003 41.5096 199.967 41.5338C199.917 41.5662 199.858 41.5822 199.798 41.5794C199.693 41.57 199.591 41.5389 199.499 41.4882C199.401 41.4492 199.31 41.3954 199.228 41.3285C199.207 41.3088 199.19 41.285 199.178 41.2585C199.166 41.2321 199.16 41.2035 199.16 41.1745C199.171 41.071 199.196 40.9694 199.234 40.8723L201.176 36.8118C201.216 36.7048 201.287 36.6124 201.381 36.5466C201.426 36.5294 201.475 36.5217 201.524 36.5238C201.629 36.537 201.732 36.5698 201.826 36.6207C202.045 36.7234 202.154 36.8403 202.154 36.9629C202.14 37.0673 202.112 37.1692 202.068 37.2652L200.132 41.2914Z" fill="#181818"/>
<path d="M206.314 38.7447C206.392 38.7827 206.457 38.8432 206.5 38.9184C206.543 38.9937 206.563 39.0802 206.557 39.1667C206.564 39.2518 206.545 39.3371 206.503 39.4114C206.46 39.4856 206.397 39.5454 206.32 39.583L203.754 41.1142C203.548 41.2483 203.386 41.2625 203.26 41.157C203.192 41.0941 203.133 41.021 203.086 40.9403C203.024 40.8561 202.982 40.7585 202.964 40.6551C202.962 40.6005 202.975 40.5464 203.001 40.4983C203.071 40.4086 203.16 40.3348 203.26 40.2816L205.137 39.1724L203.266 38.0603C203.21 38.0272 203.156 37.9911 203.104 37.9519C203.064 37.9235 203.032 37.8867 203.009 37.8443C202.986 37.8019 202.972 37.7549 202.969 37.7067C202.977 37.6042 203.013 37.5056 203.072 37.4216C203.198 37.2134 203.315 37.1079 203.423 37.1079C203.54 37.1141 203.653 37.1537 203.748 37.222L206.314 38.7447Z" fill="#181818"/>
</svg>
