<svg width="334" height="143" viewBox="0 0 334 143" fill="none" xmlns="http://www.w3.org/2000/svg">
<g clip-path="url(#clip0_116_12183)">
<rect width="334" height="143" rx="8" fill="#111928"/>
<rect x="28.5" y="51.5" width="80" height="73" rx="7.5" stroke="#1ABFAB"/>
<path d="M67.4318 85.2525C67.1857 84.4994 66.8614 83.8246 66.4587 83.2281C66.0635 82.6242 65.5901 82.1097 65.0383 81.6847C64.494 81.2597 63.8752 80.9353 63.1817 80.7116C62.4883 80.488 61.7278 80.3761 60.9001 80.3761C59.5431 80.3761 58.3091 80.7265 57.1981 81.4274C56.0871 82.1283 55.2036 83.161 54.5474 84.5255C53.8913 85.89 53.5632 87.5639 53.5632 89.5473C53.5632 91.5306 53.895 93.2045 54.5586 94.569C55.2222 95.9335 56.1207 96.9662 57.254 97.6671C58.3874 98.368 59.6624 98.7184 61.0791 98.7184C62.3914 98.7184 63.5471 98.4388 64.5462 97.8796C65.5528 97.3129 66.3357 96.5151 66.8949 95.4861C67.4616 94.4497 67.7449 93.2306 67.7449 91.8289L68.5949 92.0078H61.7054V89.5473H70.4292V92.0078C70.4292 93.8942 70.0265 95.5346 69.2213 96.9289C68.4234 98.3232 67.3199 99.4044 65.9107 100.172C64.5089 100.933 62.8984 101.313 61.0791 101.313C59.051 101.313 57.2689 100.836 55.733 99.8816C54.2044 98.9272 53.0114 97.5701 52.154 95.8105C51.304 94.0508 50.879 91.9631 50.879 89.5473C50.879 87.7354 51.1213 86.1062 51.6059 84.6597C52.0981 83.2057 52.7915 81.968 53.6862 80.9465C54.581 79.925 55.6398 79.1421 56.8626 78.5978C58.0854 78.0535 59.4312 77.7813 60.9001 77.7813C62.108 77.7813 63.2339 77.964 64.2778 78.3294C65.3291 78.6873 66.2649 79.198 67.0851 79.8616C67.9127 80.5178 68.6024 81.3044 69.1542 82.2215C69.7059 83.1312 70.0862 84.1415 70.295 85.2525H67.4318ZM77.4613 78.0945V101H74.8218V78.0945H77.4613Z" fill="#3DF1DC"/>
<path d="M266.58 24.26H212.04C209.818 24.26 208 26.078 208 28.3V145.46C208 147.682 209.818 149.5 212.04 149.5H304.96C307.202 149.5 309 147.682 309 145.46V49.914L266.58 24.26Z" fill="#CCCCCC"/>
<path d="M212.04 148.49C210.363 148.49 209.01 147.137 209.01 145.46V28.3003C209.01 26.6237 210.363 25.2703 212.04 25.2703H266.317L307.99 50.5001V145.46C307.99 147.137 306.637 148.49 304.96 148.49H212.04Z" fill="url(#paint0_radial_116_12183)"/>
<g opacity="0.5">
<path d="M281.772 74.3789H222.775V103.877H281.772V74.3789Z" fill="#DAF1EE"/>
<path d="M283.411 116.988H221.137V120.265H283.411V116.988Z" fill="url(#paint1_linear_116_12183)"/>
<path d="M226.053 105.517L231.756 92.9144C231.756 92.9144 234.608 97.9619 237.459 97.9619C240.311 97.9619 244.588 80.3122 244.588 80.3122C244.588 80.3122 244.588 82.8359 246.014 82.8359C247.439 82.8359 248.865 72.7573 248.865 72.7573C248.865 72.7573 252.143 101.748 254.994 101.748C257.846 101.748 257.846 96.7001 257.846 96.7001L262.123 105.517H226.069H226.053Z" fill="#2BD0BC"/>
<path d="M283.411 102.238H233.788V105.516H283.411V102.238Z" fill="#2BD0BC"/>
<path d="M283.411 105.516H221.137V72.7405H283.411V105.516ZM281.773 74.3793H222.776V103.878H281.773V74.3793Z" fill="#A2C4CC"/>
<path d="M276.905 112.891L280.953 107.237L285.001 112.891H276.905Z" fill="#A2C4CC"/>
<path d="M244.079 112.891L248.127 107.237L252.191 112.891H244.079Z" fill="#A2C4CC"/>
<path d="M217.859 112.891L221.907 107.237L225.971 112.891H217.859Z" fill="#A2C4CC"/>
<path d="M278.495 112.071L280.953 108.646L283.411 112.071H278.495Z" fill="white"/>
</g>
<path d="M285.225 63.1655C283.286 64.2765 280.821 63.6099 279.71 61.6909L266.318 25.2703L307.99 50.3385L285.225 63.1655Z" fill="#CCCCCC"/>
<path d="M287.245 59.1255C285.306 60.2365 282.841 59.5699 281.73 57.6509L266.318 25.2703L307.99 50.3385L287.245 59.1255Z" fill="url(#paint2_linear_116_12183)"/>
<path d="M309 49.914L266.58 24.26H212.04C209.818 24.26 208 26.078 208 28.3V68.7H309V49.914Z" fill="#B9CFCC"/>
<path d="M307.99 50.5001L266.317 25.2703H212.04C210.363 25.2703 209.01 26.6237 209.01 28.3003V68.7003H307.99V50.5001Z" fill="url(#paint3_radial_116_12183)"/>
<path d="M285.225 63.1655C283.286 64.2765 280.821 63.6099 279.71 61.6909L266.318 25.2703L307.99 50.3385L285.225 63.1655Z" fill="#0D6156"/>
<path d="M287.245 59.1255C285.306 60.2365 282.841 59.5699 281.73 57.6509L266.318 25.2703L307.99 50.3385L287.245 59.1255Z" fill="#0E8879"/>
<path d="M225.996 45.4124C225.906 45.0982 225.779 44.8206 225.615 44.5796C225.452 44.3342 225.252 44.1276 225.015 43.9598C224.783 43.7876 224.516 43.6564 224.215 43.566C223.918 43.4756 223.588 43.4304 223.227 43.4304C222.551 43.4304 221.957 43.5983 221.445 43.934C220.937 44.2697 220.541 44.7582 220.257 45.3995C219.973 46.0365 219.831 46.8155 219.831 47.7365C219.831 48.6576 219.971 49.4409 220.251 50.0865C220.53 50.7321 220.926 51.2249 221.438 51.5649C221.951 51.9006 222.555 52.0685 223.253 52.0685C223.885 52.0685 224.425 51.9566 224.873 51.7328C225.325 51.5047 225.669 51.184 225.906 50.7708C226.147 50.3577 226.268 49.8692 226.268 49.3053L226.836 49.3893H223.427V47.2846H228.96V48.9503C228.96 50.1123 228.714 51.1108 228.224 51.9458C227.733 52.7765 227.057 53.4178 226.196 53.8697C225.336 54.3173 224.35 54.5411 223.24 54.5411C222 54.5411 220.911 54.2678 219.973 53.7212C219.035 53.1703 218.303 52.3891 217.778 51.3777C217.257 50.362 216.997 49.1568 216.997 47.7624C216.997 46.6907 217.152 45.7352 217.462 44.8959C217.776 44.0523 218.215 43.3379 218.779 42.7525C219.342 42.1672 219.999 41.7217 220.748 41.4161C221.497 41.1106 222.308 40.9578 223.182 40.9578C223.93 40.9578 224.628 41.0675 225.273 41.287C225.919 41.5022 226.491 41.8078 226.991 42.2038C227.494 42.5997 227.905 43.071 228.224 43.6176C228.542 44.1599 228.747 44.7582 228.837 45.4124H225.996ZM232.93 54.3604H229.934L234.499 41.1385H238.101L242.659 54.3604H239.664L236.352 44.1599H236.248L232.93 54.3604ZM232.743 49.1633H239.819V51.3454H232.743V49.1633ZM244.251 54.3604V41.1385H247.046V52.0556H252.714V54.3604H244.251Z" fill="white"/>
<g clip-path="url(#clip1_116_12183)">
<rect x="269.948" y="107.208" width="36.9771" height="37.2508" rx="4.52781" transform="rotate(14.8896 269.948 107.208)" fill="white" stroke="#1ABFAB" stroke-width="4.02472"/>
<g filter="url(#filter0_d_116_12183)">
<rect x="256.479" y="119.337" width="38.2349" height="36.2225" rx="6.54017" fill="white"/>
<rect x="258.492" y="121.35" width="34.2101" height="32.1978" rx="4.52781" stroke="#1ABFAB" stroke-width="4.02472"/>
</g>
</g>
</g>
<defs>
<filter id="filter0_d_116_12183" x="252.455" y="115.313" width="46.2843" height="44.2719" filterUnits="userSpaceOnUse" color-interpolation-filters="sRGB">
<feFlood flood-opacity="0" result="BackgroundImageFix"/>
<feColorMatrix in="SourceAlpha" type="matrix" values="0 0 0 0 0 0 0 0 0 0 0 0 0 0 0 0 0 0 127 0" result="hardAlpha"/>
<feOffset/>
<feGaussianBlur stdDeviation="2.01236"/>
<feComposite in2="hardAlpha" operator="out"/>
<feColorMatrix type="matrix" values="0 0 0 0 0.339606 0 0 0 0 0.322275 0 0 0 0 0.446068 0 0 0 0.25 0"/>
<feBlend mode="normal" in2="BackgroundImageFix" result="effect1_dropShadow_116_12183"/>
<feBlend mode="normal" in="SourceGraphic" in2="effect1_dropShadow_116_12183" result="shape"/>
</filter>
<radialGradient id="paint0_radial_116_12183" cx="0" cy="0" r="1" gradientUnits="userSpaceOnUse" gradientTransform="translate(258.48 86.8803) scale(77.7902)">
<stop stop-color="white"/>
<stop offset="0.39" stop-color="#FBFBFB"/>
<stop offset="0.7" stop-color="#F1F1F1"/>
<stop offset="0.99" stop-color="#E0E0E0"/>
<stop offset="1" stop-color="#E0E0E0"/>
</radialGradient>
<linearGradient id="paint1_linear_116_12183" x1="221.137" y1="118.627" x2="283.397" y2="118.627" gradientUnits="userSpaceOnUse">
<stop stop-color="#A2C4CC"/>
<stop offset="1" stop-color="#E5E5E5"/>
</linearGradient>
<linearGradient id="paint2_linear_116_12183" x1="286.073" y1="39.3093" x2="253.794" y2="84.4967" gradientUnits="userSpaceOnUse">
<stop stop-color="white"/>
<stop offset="0.34" stop-color="#F9F9F9"/>
<stop offset="0.75" stop-color="#EAEAEA"/>
<stop offset="1" stop-color="#DEDEDE"/>
</linearGradient>
<radialGradient id="paint3_radial_116_12183" cx="0" cy="0" r="1" gradientUnits="userSpaceOnUse" gradientTransform="translate(259.49 93.9301) scale(82.9412 82.9412)">
<stop stop-color="#1ABFAB"/>
<stop offset="0.34" stop-color="#20CFBA"/>
<stop offset="0.77" stop-color="#64D3C6"/>
<stop offset="1" stop-color="#11A896"/>
</radialGradient>
<clipPath id="clip0_116_12183">
<rect width="334" height="143" rx="8" fill="white"/>
</clipPath>
<clipPath id="clip1_116_12183">
<rect width="52.52" height="48.48" fill="white" transform="translate(254.46 101.02)"/>
</clipPath>
</defs>
</svg>
