<svg width="19" height="19" viewBox="0 0 19 19" fill="none" xmlns="http://www.w3.org/2000/svg">
<path d="M13.5903 10.286L13.5904 10.286C13.8777 9.9592 14.1833 9.41654 13.9303 8.85108C13.6761 8.28293 13.0653 8.1525 12.6299 8.1525H11.7574V5.1895C11.7574 4.92059 11.7225 4.64959 11.6236 4.40941C11.5231 4.16566 11.3311 3.90072 11.0001 3.77738C10.6703 3.65447 10.3528 3.72827 10.1188 3.84405C9.88729 3.95857 9.68302 4.13741 9.50625 4.33736L9.5052 4.33856L9.0982 4.80106L9.09805 4.80123L5.65705 8.71398L5.65702 8.71401C5.36967 9.0408 5.06413 9.58346 5.3171 10.1489C5.57127 10.7171 6.18209 10.8475 6.61745 10.8475H7.48995V13.8105C7.48995 14.0794 7.52486 14.3504 7.62383 14.5906C7.72428 14.8343 7.91632 15.0993 8.24728 15.2226C8.5771 15.3455 8.89458 15.2717 9.12861 15.156C9.36011 15.0414 9.56437 14.8626 9.74114 14.6626L9.7422 14.6614L10.1492 14.1989L10.1493 14.1988L13.5903 10.286ZM1.04595 9.5C1.04595 4.7806 4.87655 0.95 9.59595 0.95C14.3241 0.95 18.1459 4.78014 18.1459 9.5C18.1459 14.2194 14.3153 18.05 9.59595 18.05C4.87655 18.05 1.04595 14.2194 1.04595 9.5Z" fill="#6B7280" stroke="#6B7280" stroke-width="1.4"/>
</svg>
