<svg width="32" height="33" viewBox="0 0 32 33" fill="none" xmlns="http://www.w3.org/2000/svg">
<path d="M11.2 5.45605C10.7756 5.45605 10.3686 5.62463 10.0686 5.92468C9.76852 6.22474 9.59995 6.63171 9.59995 7.05605C9.59995 7.4804 9.76852 7.88737 10.0686 8.18743C10.3686 8.48748 10.7756 8.65605 11.2 8.65605H20.7999C21.2243 8.65605 21.6313 8.48748 21.9313 8.18743C22.2314 7.88737 22.4 7.4804 22.4 7.05605C22.4 6.63171 22.2314 6.22474 21.9313 5.92468C21.6313 5.62463 21.2243 5.45605 20.7999 5.45605H11.2ZM6.39995 11.8561C6.39995 11.4317 6.56852 11.0247 6.86858 10.7247C7.16864 10.4246 7.5756 10.2561 7.99995 10.2561H24C24.4243 10.2561 24.8313 10.4246 25.1313 10.7247C25.4314 11.0247 25.5999 11.4317 25.5999 11.8561C25.5999 12.2804 25.4314 12.6874 25.1313 12.9874C24.8313 13.2875 24.4243 13.4561 24 13.4561H7.99995C7.5756 13.4561 7.16864 13.2875 6.86858 12.9874C6.56852 12.6874 6.39995 12.2804 6.39995 11.8561ZM3.19995 18.2561C3.19995 17.4074 3.53709 16.5934 4.13721 15.9933C4.73733 15.3932 5.55126 15.0561 6.39995 15.0561H25.5999C26.4486 15.0561 27.2626 15.3932 27.8627 15.9933C28.4628 16.5934 28.7999 17.4074 28.7999 18.2561V24.6561C28.7999 25.5047 28.4628 26.3187 27.8627 26.9188C27.2626 27.5189 26.4486 27.8561 25.5999 27.8561H6.39995C5.55126 27.8561 4.73733 27.5189 4.13721 26.9188C3.53709 26.3187 3.19995 25.5047 3.19995 24.6561V18.2561Z" fill="#6B7280"/>
</svg>
