<svg width="334" height="143" viewBox="0 0 334 143" fill="none" xmlns="http://www.w3.org/2000/svg">
<g clip-path="url(#clip0_116_12087)">
<rect width="334" height="143" rx="8" fill="#111928"/>
<path d="M271.299 21H217.021C214.809 21 213 22.8093 213 25.0206V141.619C213 143.831 214.809 145.64 217.021 145.64H309.495C311.727 145.64 313.516 143.831 313.516 141.619V46.5311L271.299 21Z" fill="#CCCCCC"/>
<path d="M217.021 144.635C215.352 144.635 214.005 143.288 214.005 141.619V25.0204C214.005 23.3518 215.352 22.0049 217.021 22.0049H271.038L312.511 47.1138V141.619C312.511 143.288 311.164 144.635 309.496 144.635H217.021Z" fill="url(#paint0_radial_116_12087)"/>
<path d="M289.855 59.7185C287.925 60.8242 285.472 60.1608 284.367 58.251L271.038 22.0049L312.511 46.953L289.855 59.7185Z" fill="#CCCCCC"/>
<path d="M291.865 55.6979C289.935 56.8036 287.483 56.1402 286.377 54.2304L271.038 22.0049L312.511 46.953L291.865 55.6979Z" fill="url(#paint1_linear_116_12087)"/>
<path d="M313.516 46.5311L271.299 21H217.021C214.809 21 213 22.8093 213 25.0206V65.2271H313.516V46.5311Z" fill="#B9CFCC"/>
<path d="M312.511 47.1138L271.038 22.0049H217.021C215.352 22.0049 214.005 23.3518 214.005 25.0204V65.2268H312.511V47.1138Z" fill="url(#paint2_radial_116_12087)"/>
<path d="M289.855 59.7185C287.925 60.8242 285.472 60.1608 284.367 58.251L271.038 22.0049L312.511 46.953L289.855 59.7185Z" fill="#0D6156"/>
<path d="M291.865 55.6979C289.935 56.8036 287.483 56.1402 286.377 54.2304L271.038 22.0049L312.511 46.953L291.865 55.6979Z" fill="#0E8879"/>
<path d="M271.299 93.3716H243.155V101.413H271.299V93.3716Z" fill="url(#paint3_radial_116_12087)"/>
<path d="M271.299 113.475H243.155V121.516H271.299V113.475Z" fill="url(#paint4_radial_116_12087)"/>
<path d="M273.31 73.2686H221.041V83.3202H273.31V73.2686Z" fill="url(#paint5_radial_116_12087)"/>
<path d="M273.309 91.3616H221.041V93.3719H273.309V91.3616Z" fill="url(#paint6_radial_116_12087)"/>
<path d="M223.051 73.2686H221.041V123.527H223.051V73.2686Z" fill="url(#paint7_radial_116_12087)"/>
<path d="M273.309 73.2686H271.299V123.527H273.309V73.2686Z" fill="url(#paint8_radial_116_12087)"/>
<path d="M243.155 73.2686H241.144V123.527H243.155V73.2686Z" fill="url(#paint9_radial_116_12087)"/>
<path d="M253.206 73.2686H251.196V123.527H253.206V73.2686Z" fill="url(#paint10_radial_116_12087)"/>
<path d="M263.258 73.2686H261.248V123.527H263.258V73.2686Z" fill="url(#paint11_radial_116_12087)"/>
<path d="M273.309 101.413H221.041V103.423H273.309V101.413Z" fill="url(#paint12_radial_116_12087)"/>
<path d="M273.309 111.464H221.041V113.475H273.309V111.464Z" fill="url(#paint13_radial_116_12087)"/>
<path d="M273.309 121.516H221.041V123.526H273.309V121.516Z" fill="url(#paint14_radial_116_12087)"/>
<path d="M241.145 83.3198H223.052V121.516H241.145V83.3198Z" fill="#D7F7F3"/>
<path d="M241.145 93.3716H223.052V101.413H241.145V93.3716Z" fill="#DDFFFB"/>
<path d="M241.145 113.475H223.052V121.516H241.145V113.475Z" fill="#DDFFFB"/>
<path d="M243.155 91.3616H223.052V93.3719H243.155V91.3616Z" fill="#BBEBEE"/>
<path d="M243.155 101.413H223.052V103.423H243.155V101.413Z" fill="#BBEBEE"/>
<path d="M243.155 111.464H223.052V113.475H243.155V111.464Z" fill="#BBEBEE"/>
<path d="M243.155 83.3198H241.144V121.516H243.155V83.3198Z" fill="#BBEBEE"/>
<path d="M223.051 83.3198H221.041V121.516H223.051V83.3198Z" fill="#BBEBEE"/>
<path d="M229.323 41.6776C229.272 41.1593 229.051 40.7567 228.661 40.4697C228.271 40.1827 227.742 40.0392 227.074 40.0392C226.62 40.0392 226.237 40.1035 225.924 40.232C225.611 40.3562 225.372 40.5297 225.205 40.7524C225.042 40.9752 224.96 41.2279 224.96 41.5106C224.952 41.7462 225.001 41.9518 225.108 42.1274C225.22 42.303 225.372 42.4551 225.564 42.5836C225.757 42.7078 225.98 42.817 226.233 42.9112C226.485 43.0012 226.755 43.0783 227.042 43.1425L228.224 43.4252C228.798 43.5537 229.325 43.7251 229.805 43.9392C230.285 44.1534 230.7 44.4168 231.051 44.7295C231.403 45.0422 231.675 45.4106 231.867 45.8346C232.064 46.2587 232.165 46.7448 232.169 47.2931C232.165 48.0984 231.959 48.7966 231.552 49.3877C231.15 49.9745 230.567 50.4307 229.805 50.7562C229.047 51.0775 228.132 51.2381 227.061 51.2381C225.999 51.2381 225.074 51.0753 224.286 50.7498C223.502 50.4242 222.889 49.9424 222.448 49.3041C222.011 48.6616 221.782 47.8671 221.761 46.9205H224.453C224.483 47.3616 224.609 47.73 224.832 48.0256C225.059 48.3168 225.361 48.5374 225.738 48.6873C226.119 48.833 226.55 48.9058 227.029 48.9058C227.5 48.9058 227.91 48.8373 228.256 48.7002C228.608 48.5631 228.88 48.3725 229.072 48.1284C229.265 47.8842 229.362 47.6037 229.362 47.2867C229.362 46.9911 229.274 46.7427 229.098 46.5414C228.927 46.3401 228.674 46.1687 228.34 46.0274C228.01 45.886 227.605 45.7575 227.126 45.6419L225.693 45.2821C224.583 45.0122 223.708 44.5903 223.065 44.0163C222.423 43.4424 222.103 42.6692 222.108 41.6969C222.103 40.9002 222.315 40.2042 222.744 39.6088C223.176 39.0134 223.77 38.5486 224.524 38.2145C225.277 37.8804 226.134 37.7134 227.094 37.7134C228.07 37.7134 228.923 37.8804 229.651 38.2145C230.383 38.5486 230.953 39.0134 231.36 39.6088C231.767 40.2042 231.977 40.8938 231.989 41.6776H229.323ZM234.041 51.0518V37.8933H239.232C240.23 37.8933 241.08 38.0839 241.783 38.4651C242.485 38.842 243.021 39.3668 243.389 40.0392C243.762 40.7074 243.948 41.4785 243.948 42.3523C243.948 43.2261 243.76 43.9971 243.383 44.6653C243.006 45.3335 242.46 45.8539 241.744 46.2266C241.033 46.5992 240.172 46.7855 239.161 46.7855H235.852V44.556H238.712C239.247 44.556 239.688 44.464 240.035 44.2798C240.386 44.0913 240.648 43.8322 240.819 43.5023C240.995 43.1682 241.082 42.7849 241.082 42.3523C241.082 41.9154 240.995 41.5341 240.819 41.2086C240.648 40.8788 240.386 40.6239 240.035 40.444C239.684 40.2598 239.238 40.1677 238.699 40.1677H236.823V51.0518H234.041ZM252.893 41.6776C252.842 41.1593 252.621 40.7567 252.231 40.4697C251.842 40.1827 251.313 40.0392 250.644 40.0392C250.19 40.0392 249.807 40.1035 249.494 40.232C249.182 40.3562 248.942 40.5297 248.775 40.7524C248.612 40.9752 248.531 41.2279 248.531 41.5106C248.522 41.7462 248.571 41.9518 248.678 42.1274C248.79 42.303 248.942 42.4551 249.135 42.5836C249.327 42.7078 249.55 42.817 249.803 42.9112C250.056 43.0012 250.325 43.0783 250.612 43.1425L251.795 43.4252C252.369 43.5537 252.895 43.7251 253.375 43.9392C253.855 44.1534 254.27 44.4168 254.622 44.7295C254.973 45.0422 255.245 45.4106 255.438 45.8346C255.635 46.2587 255.735 46.7448 255.74 47.2931C255.735 48.0984 255.53 48.7966 255.123 49.3877C254.72 49.9745 254.138 50.4307 253.375 50.7562C252.617 51.0775 251.702 51.2381 250.632 51.2381C249.569 51.2381 248.644 51.0753 247.856 50.7498C247.072 50.4242 246.46 49.9424 246.018 49.3041C245.582 48.6616 245.352 47.8671 245.331 46.9205H248.023C248.053 47.3616 248.179 47.73 248.402 48.0256C248.629 48.3168 248.931 48.5374 249.308 48.6873C249.689 48.833 250.12 48.9058 250.6 48.9058C251.071 48.9058 251.48 48.8373 251.827 48.7002C252.178 48.5631 252.45 48.3725 252.643 48.1284C252.835 47.8842 252.932 47.6037 252.932 47.2867C252.932 46.9911 252.844 46.7427 252.668 46.5414C252.497 46.3401 252.244 46.1687 251.91 46.0274C251.58 45.886 251.176 45.7575 250.696 45.6419L249.263 45.2821C248.154 45.0122 247.278 44.5903 246.635 44.0163C245.993 43.4424 245.674 42.6692 245.678 41.6969C245.674 40.9002 245.886 40.2042 246.314 39.6088C246.747 39.0134 247.34 38.5486 248.094 38.2145C248.848 37.8804 249.704 37.7134 250.664 37.7134C251.64 37.7134 252.493 37.8804 253.221 38.2145C253.953 38.5486 254.523 39.0134 254.93 39.6088C255.337 40.2042 255.547 40.8938 255.56 41.6776H252.893ZM257.611 51.0518V37.8933H260.393V43.3224H266.04V37.8933H268.816V51.0518H266.04V45.6162H260.393V51.0518H257.611Z" fill="white"/>
<g clip-path="url(#clip1_116_12087)">
<g filter="url(#filter0_d_116_12087)">
<rect x="263.258" y="103.423" width="56.289" height="52.771" rx="7.03613" fill="white"/>
<rect x="265.423" y="105.588" width="51.9591" height="48.441" rx="4.87117" stroke="#1ABFAB" stroke-width="4.32993"/>
</g>
<path fill-rule="evenodd" clip-rule="evenodd" d="M266.776 128.049L280.848 128.049V138.605L266.776 138.605L266.776 142.123L280.848 142.123V152.676H284.366V142.123H298.438V152.676H301.956V142.123H316.028V138.605L301.956 138.605V128.049L316.028 128.049V124.531L266.776 124.531L266.776 128.049ZM298.438 128.049L284.366 128.049V138.605L298.438 138.605V128.049Z" fill="#6EE3CE" fill-opacity="0.35"/>
</g>
<rect x="28.5" y="51.5" width="80" height="73" rx="7.5" stroke="#1ABFAB"/>
<path d="M64.3002 83.8209C64.1659 82.6875 63.6216 81.8077 62.6672 81.1814C61.7128 80.5551 60.5422 80.2419 59.1554 80.2419C58.1413 80.2419 57.254 80.4059 56.4935 80.734C55.7404 81.0621 55.1514 81.5132 54.7264 82.0873C54.3088 82.6614 54.1001 83.3139 54.1001 84.0446C54.1001 84.656 54.2454 85.1816 54.5362 85.6216C54.8345 86.054 55.2148 86.4156 55.677 86.7064C56.1393 86.9898 56.624 87.2246 57.131 87.411C57.638 87.59 58.104 87.7354 58.529 87.8472L60.8554 88.4736C61.4519 88.6301 62.1155 88.8464 62.8462 89.1222C63.5844 89.3981 64.289 89.7747 64.96 90.2519C65.6385 90.7216 66.1978 91.3256 66.6377 92.0637C67.0776 92.8019 67.2976 93.7078 67.2976 94.7815C67.2976 96.0192 66.9732 97.1377 66.3245 98.1368C65.6833 99.1359 64.7438 99.93 63.5061 100.519C62.2758 101.108 60.7808 101.403 59.0212 101.403C57.3808 101.403 55.9604 101.138 54.7599 100.609C53.5669 100.079 52.6274 99.341 51.9415 98.3941C51.263 97.4471 50.879 96.3473 50.7895 95.0947H53.6527C53.7272 95.9596 54.018 96.6754 54.5251 97.2421C55.0395 97.8013 55.6882 98.2188 56.4711 98.4947C57.2615 98.7631 58.1115 98.8973 59.0212 98.8973C60.0799 98.8973 61.0306 98.7259 61.8732 98.3829C62.7157 98.0324 63.383 97.5478 63.8752 96.9289C64.3673 96.3026 64.6133 95.5719 64.6133 94.7368C64.6133 93.9762 64.4008 93.3574 63.9758 92.8802C63.5508 92.403 62.9916 92.0153 62.2982 91.717C61.6047 91.4188 60.8554 91.1578 60.0501 90.9341L57.2317 90.1288C55.4422 89.6144 54.0255 88.8799 52.9816 87.9255C51.9377 86.9711 51.4158 85.7222 51.4158 84.1788C51.4158 82.8963 51.7625 81.7779 52.456 80.8235C53.1568 79.8616 54.0963 79.116 55.2744 78.5866C56.4599 78.0498 57.7834 77.7813 59.2448 77.7813C60.7212 77.7813 62.0335 78.046 63.1817 78.5754C64.33 79.0974 65.2396 79.8132 65.9107 80.7228C66.5892 81.6325 66.9471 82.6652 66.9844 83.8209H64.3002ZM71.5001 107.442V83.8209H74.0501V86.5499H74.3632C74.5571 86.2516 74.8255 85.8713 75.1685 85.4091C75.519 84.9393 76.0185 84.5218 76.6672 84.1564C77.3234 83.7836 78.2107 83.5972 79.3291 83.5972C80.7756 83.5972 82.0506 83.9588 83.1541 84.6821C84.2576 85.4053 85.1188 86.4306 85.7377 87.7578C86.3566 89.085 86.666 90.6508 86.666 92.4552C86.666 94.2745 86.3566 95.8515 85.7377 97.1861C85.1188 98.5134 84.2614 99.5423 83.1653 100.273C82.0692 100.996 80.8054 101.358 79.3738 101.358C78.2703 101.358 77.3867 101.175 76.7231 100.81C76.0595 100.437 75.5488 100.016 75.1909 99.546C74.833 99.0688 74.5571 98.6737 74.3632 98.3605H74.1396V107.442H71.5001ZM74.0948 92.4104C74.0948 93.7078 74.285 94.8524 74.6652 95.844C75.0455 96.8282 75.601 97.6 76.3317 98.1592C77.0624 98.7109 77.9571 98.9868 79.0159 98.9868C80.1194 98.9868 81.0403 98.696 81.7785 98.1144C82.5241 97.5254 83.0833 96.735 83.4561 95.7434C83.8364 94.7442 84.0265 93.6333 84.0265 92.4104C84.0265 91.2025 83.8401 90.1139 83.4673 89.1446C83.1019 88.1679 82.5464 87.3961 81.8008 86.8295C81.0627 86.2553 80.1344 85.9683 79.0159 85.9683C77.9422 85.9683 77.04 86.2404 76.3093 86.7847C75.5786 87.3216 75.0269 88.0747 74.654 89.044C74.2812 90.0058 74.0948 91.128 74.0948 92.4104Z" fill="#3DF1DC"/>
</g>
<defs>
<filter id="filter0_d_116_12087" x="258.928" y="99.0934" width="64.9489" height="61.4308" filterUnits="userSpaceOnUse" color-interpolation-filters="sRGB">
<feFlood flood-opacity="0" result="BackgroundImageFix"/>
<feColorMatrix in="SourceAlpha" type="matrix" values="0 0 0 0 0 0 0 0 0 0 0 0 0 0 0 0 0 0 127 0" result="hardAlpha"/>
<feOffset/>
<feGaussianBlur stdDeviation="2.16496"/>
<feComposite in2="hardAlpha" operator="out"/>
<feColorMatrix type="matrix" values="0 0 0 0 0.339606 0 0 0 0 0.322275 0 0 0 0 0.446068 0 0 0 0.25 0"/>
<feBlend mode="normal" in2="BackgroundImageFix" result="effect1_dropShadow_116_12087"/>
<feBlend mode="normal" in="SourceGraphic" in2="effect1_dropShadow_116_12087" result="shape"/>
</filter>
<radialGradient id="paint0_radial_116_12087" cx="0" cy="0" r="1" gradientUnits="userSpaceOnUse" gradientTransform="translate(263.238 83.3197) scale(77.4175)">
<stop stop-color="white"/>
<stop offset="0.39" stop-color="#FBFBFB"/>
<stop offset="0.7" stop-color="#F1F1F1"/>
<stop offset="0.99" stop-color="#E0E0E0"/>
<stop offset="1" stop-color="#E0E0E0"/>
</radialGradient>
<linearGradient id="paint1_linear_116_12087" x1="290.699" y1="35.9766" x2="258.574" y2="80.9475" gradientUnits="userSpaceOnUse">
<stop stop-color="white"/>
<stop offset="0.34" stop-color="#F9F9F9"/>
<stop offset="0.75" stop-color="#EAEAEA"/>
<stop offset="1" stop-color="#DEDEDE"/>
</linearGradient>
<radialGradient id="paint2_radial_116_12087" cx="0" cy="0" r="1" gradientUnits="userSpaceOnUse" gradientTransform="translate(264.243 90.3357) scale(82.5438 82.5438)">
<stop stop-color="#1ABFAB"/>
<stop offset="0.34" stop-color="#20CFBA"/>
<stop offset="0.77" stop-color="#64D3C6"/>
<stop offset="1" stop-color="#11A896"/>
</radialGradient>
<radialGradient id="paint3_radial_116_12087" cx="0" cy="0" r="1" gradientUnits="userSpaceOnUse" gradientTransform="translate(259.075 133.176) rotate(90) scale(83.8707 34.387)">
<stop stop-color="#F2F2F2"/>
<stop offset="1" stop-color="#F5F5F5"/>
</radialGradient>
<radialGradient id="paint4_radial_116_12087" cx="0" cy="0" r="1" gradientUnits="userSpaceOnUse" gradientTransform="translate(306.369 153.279) rotate(90) scale(1.00516 0.412116)">
<stop stop-color="#F2F2F2"/>
<stop offset="1" stop-color="#F5F5F5"/>
</radialGradient>
<radialGradient id="paint5_radial_116_12087" cx="0" cy="0" r="1" gradientUnits="userSpaceOnUse" gradientTransform="translate(261.911 97.7342) scale(82.5438 82.5439)">
<stop stop-color="#E5E5E5"/>
<stop offset="0.34" stop-color="#E1E1E1"/>
<stop offset="0.61" stop-color="#D7D7D7"/>
<stop offset="0.86" stop-color="#C6C6C6"/>
<stop offset="1" stop-color="#BABABA"/>
</radialGradient>
<radialGradient id="paint6_radial_116_12087" cx="0" cy="0" r="1" gradientUnits="userSpaceOnUse" gradientTransform="translate(261.911 97.7343) scale(82.5438 82.5438)">
<stop stop-color="#E5E5E5"/>
<stop offset="0.34" stop-color="#E1E1E1"/>
<stop offset="0.61" stop-color="#D7D7D7"/>
<stop offset="0.86" stop-color="#C6C6C6"/>
<stop offset="1" stop-color="#BABABA"/>
</radialGradient>
<radialGradient id="paint7_radial_116_12087" cx="0" cy="0" r="1" gradientUnits="userSpaceOnUse" gradientTransform="translate(261.911 97.7342) scale(82.5438)">
<stop stop-color="#E5E5E5"/>
<stop offset="0.34" stop-color="#E1E1E1"/>
<stop offset="0.61" stop-color="#D7D7D7"/>
<stop offset="0.86" stop-color="#C6C6C6"/>
<stop offset="1" stop-color="#BABABA"/>
</radialGradient>
<radialGradient id="paint8_radial_116_12087" cx="0" cy="0" r="1" gradientUnits="userSpaceOnUse" gradientTransform="translate(261.911 97.7342) scale(82.5438)">
<stop stop-color="#E5E5E5"/>
<stop offset="0.34" stop-color="#E1E1E1"/>
<stop offset="0.61" stop-color="#D7D7D7"/>
<stop offset="0.86" stop-color="#C6C6C6"/>
<stop offset="1" stop-color="#BABABA"/>
</radialGradient>
<radialGradient id="paint9_radial_116_12087" cx="0" cy="0" r="1" gradientUnits="userSpaceOnUse" gradientTransform="translate(261.911 97.7342) scale(82.5438)">
<stop stop-color="#E5E5E5"/>
<stop offset="0.34" stop-color="#E1E1E1"/>
<stop offset="0.61" stop-color="#D7D7D7"/>
<stop offset="0.86" stop-color="#C6C6C6"/>
<stop offset="1" stop-color="#BABABA"/>
</radialGradient>
<radialGradient id="paint10_radial_116_12087" cx="0" cy="0" r="1" gradientUnits="userSpaceOnUse" gradientTransform="translate(261.911 97.7342) scale(82.5438)">
<stop stop-color="#E5E5E5"/>
<stop offset="0.34" stop-color="#E1E1E1"/>
<stop offset="0.61" stop-color="#D7D7D7"/>
<stop offset="0.86" stop-color="#C6C6C6"/>
<stop offset="1" stop-color="#BABABA"/>
</radialGradient>
<radialGradient id="paint11_radial_116_12087" cx="0" cy="0" r="1" gradientUnits="userSpaceOnUse" gradientTransform="translate(261.911 97.7342) scale(82.5438)">
<stop stop-color="#E5E5E5"/>
<stop offset="0.34" stop-color="#E1E1E1"/>
<stop offset="0.61" stop-color="#D7D7D7"/>
<stop offset="0.86" stop-color="#C6C6C6"/>
<stop offset="1" stop-color="#BABABA"/>
</radialGradient>
<radialGradient id="paint12_radial_116_12087" cx="0" cy="0" r="1" gradientUnits="userSpaceOnUse" gradientTransform="translate(261.911 97.7337) scale(82.5438 82.5438)">
<stop stop-color="#E5E5E5"/>
<stop offset="0.34" stop-color="#E1E1E1"/>
<stop offset="0.61" stop-color="#D7D7D7"/>
<stop offset="0.86" stop-color="#C6C6C6"/>
<stop offset="1" stop-color="#BABABA"/>
</radialGradient>
<radialGradient id="paint13_radial_116_12087" cx="0" cy="0" r="1" gradientUnits="userSpaceOnUse" gradientTransform="translate(261.911 97.7339) scale(82.5438 82.5438)">
<stop stop-color="#E5E5E5"/>
<stop offset="0.34" stop-color="#E1E1E1"/>
<stop offset="0.61" stop-color="#D7D7D7"/>
<stop offset="0.86" stop-color="#C6C6C6"/>
<stop offset="1" stop-color="#BABABA"/>
</radialGradient>
<radialGradient id="paint14_radial_116_12087" cx="0" cy="0" r="1" gradientUnits="userSpaceOnUse" gradientTransform="translate(261.911 97.734) scale(82.5438 82.5438)">
<stop stop-color="#E5E5E5"/>
<stop offset="0.34" stop-color="#E1E1E1"/>
<stop offset="0.61" stop-color="#D7D7D7"/>
<stop offset="0.86" stop-color="#C6C6C6"/>
<stop offset="1" stop-color="#BABABA"/>
</radialGradient>
<clipPath id="clip0_116_12087">
<rect width="334" height="143" rx="8" fill="white"/>
</clipPath>
<clipPath id="clip1_116_12087">
<rect width="52.2684" height="48.2477" fill="white" transform="translate(259.237 97.3921)"/>
</clipPath>
</defs>
</svg>
